<svg width="22" height="22" viewBox="0 0 22 22" fill="none" xmlns="http://www.w3.org/2000/svg">
<path fill-rule="evenodd" clip-rule="evenodd" d="M10.9836 1.83057C5.92853 1.83057 1.83057 5.92849 1.83057 10.9836C1.83057 16.0386 5.92853 20.1366 10.9836 20.1366C16.0387 20.1366 20.1366 16.0387 20.1366 10.9836C20.1366 5.92849 16.0387 1.83057 10.9836 1.83057ZM10.9836 18.306C6.94602 18.306 3.66118 15.0212 3.66118 10.9836C3.66118 6.94597 6.94597 3.66118 10.9836 3.66118C15.0212 3.66118 18.306 6.94597 18.306 10.9836C18.306 15.0212 15.0212 18.306 10.9836 18.306ZM12.1297 7.32238C12.1297 7.98603 11.6465 8.46652 10.9929 8.46652C10.3128 8.46652 9.84144 7.98598 9.84144 7.30968C9.84144 6.65967 10.3255 6.17828 10.9929 6.17828C11.6465 6.17828 12.1297 6.65967 12.1297 7.32238ZM10.0703 10.0683H11.9009V15.5601H10.0703V10.0683Z" fill="#B34962"/>
</svg>
