<svg width="16" height="16" viewBox="0 0 16 16" fill="none" xmlns="http://www.w3.org/2000/svg">
<path fill-rule="evenodd" clip-rule="evenodd" d="M5.22117 8.23333C4.7305 7.652 4.33317 6.56667 4.33317 5.80667V4.66667C4.33317 3.95942 4.61412 3.28115 5.11422 2.78105C5.61432 2.28095 6.29259 2 6.99984 2C7.70708 2 8.38536 2.28095 8.88546 2.78105C9.38555 3.28115 9.6665 3.95942 9.6665 4.66667V5.80667C9.6665 6.56667 9.2665 7.65533 8.7785 8.23467L8.53784 8.52C8.1445 8.986 8.26717 9.57867 8.81717 9.84667L12.5905 11.688C13.0005 11.888 13.3332 12.4167 13.3332 12.8767V13.3347C13.3328 13.5114 13.2623 13.6807 13.1372 13.8054C13.0121 13.9302 12.8425 14.0002 12.6658 14H1.33317C1.15659 14 0.987223 13.9299 0.862237 13.8052C0.737251 13.6805 0.666857 13.5112 0.666504 13.3347V12.8767C0.666504 12.42 0.998504 11.888 1.40917 11.6873L5.1825 9.846C5.72984 9.57933 5.85717 8.98733 5.4625 8.51933L5.22117 8.23333ZM1.4665 13.2H12.5332V12.8767C12.5332 12.724 12.3765 12.4733 12.2398 12.4067L8.4665 10.5667C7.4485 10.07 7.19717 8.86933 7.9265 8.00467L8.1665 7.71933C8.5345 7.28333 8.8665 6.37667 8.8665 5.80733V4.66667C8.8665 3.63667 8.0305 2.8 6.99984 2.8C6.50493 2.80053 6.03044 2.99737 5.68049 3.34732C5.33054 3.69727 5.1337 4.17176 5.13317 4.66667V5.80667C5.13317 6.37733 5.46384 7.28 5.83317 7.71733L6.07317 8.00333C6.8045 8.86933 6.54984 10.0693 5.53317 10.5653L1.75984 12.4067C1.6245 12.4727 1.4665 12.726 1.4665 12.8767V13.2ZM12.5998 7.26667V5.33333H13.3998V7.26667H15.3332V8.06667H13.3998V10H12.5998V8.06667H10.6665V7.26667H12.5998Z" fill="#B34962"/>
</svg>
