<svg width="24" height="24" viewBox="0 0 24 24" fill="none" xmlns="http://www.w3.org/2000/svg">
<path d="M2.3999 4.20002C2.3999 3.72263 2.58954 3.2648 2.92711 2.92723C3.26468 2.58967 3.72251 2.40002 4.1999 2.40002H5.3999C5.87729 2.40002 6.33513 2.58967 6.6727 2.92723C7.01026 3.2648 7.1999 3.72263 7.1999 4.20002V5.40002C7.1999 5.87741 7.01026 6.33525 6.6727 6.67282C6.33513 7.01038 5.87729 7.20002 5.3999 7.20002H4.1999C3.72251 7.20002 3.26468 7.01038 2.92711 6.67282C2.58954 6.33525 2.3999 5.87741 2.3999 5.40002V4.20002ZM4.1999 3.60002C4.04077 3.60002 3.88816 3.66324 3.77564 3.77576C3.66312 3.88828 3.5999 4.04089 3.5999 4.20002V5.40002C3.5999 5.55915 3.66312 5.71177 3.77564 5.82429C3.88816 5.93681 4.04077 6.00002 4.1999 6.00002H5.3999C5.55903 6.00002 5.71164 5.93681 5.82417 5.82429C5.93669 5.71177 5.9999 5.55915 5.9999 5.40002V4.20002C5.9999 4.04089 5.93669 3.88828 5.82417 3.77576C5.71164 3.66324 5.55903 3.60002 5.3999 3.60002H4.1999ZM2.3999 11.4C2.3999 10.9226 2.58954 10.4648 2.92711 10.1272C3.26468 9.78967 3.72251 9.60002 4.1999 9.60002H5.3999C5.87729 9.60002 6.33513 9.78967 6.6727 10.1272C7.01026 10.4648 7.1999 10.9226 7.1999 11.4V12.6C7.1999 13.0774 7.01026 13.5353 6.6727 13.8728C6.33513 14.2104 5.87729 14.4 5.3999 14.4H4.1999C3.72251 14.4 3.26468 14.2104 2.92711 13.8728C2.58954 13.5353 2.3999 13.0774 2.3999 12.6V11.4ZM4.1999 10.8C4.04077 10.8 3.88816 10.8632 3.77564 10.9758C3.66312 11.0883 3.5999 11.2409 3.5999 11.4V12.6C3.5999 12.7592 3.66312 12.9118 3.77564 13.0243C3.88816 13.1368 4.04077 13.2 4.1999 13.2H5.3999C5.55903 13.2 5.71164 13.1368 5.82417 13.0243C5.93669 12.9118 5.9999 12.7592 5.9999 12.6V11.4C5.9999 11.2409 5.93669 11.0883 5.82417 10.9758C5.71164 10.8632 5.55903 10.8 5.3999 10.8H4.1999ZM2.3999 18.6C2.3999 18.1226 2.58954 17.6648 2.92711 17.3272C3.26468 16.9897 3.72251 16.8 4.1999 16.8H5.3999C5.87729 16.8 6.33513 16.9897 6.6727 17.3272C7.01026 17.6648 7.1999 18.1226 7.1999 18.6V19.8C7.1999 20.2774 7.01026 20.7353 6.6727 21.0728C6.33513 21.4104 5.87729 21.6 5.3999 21.6H4.1999C3.72251 21.6 3.26468 21.4104 2.92711 21.0728C2.58954 20.7353 2.3999 20.2774 2.3999 19.8V18.6ZM4.1999 18C4.04077 18 3.88816 18.0632 3.77564 18.1758C3.66312 18.2883 3.5999 18.4409 3.5999 18.6V19.8C3.5999 19.9592 3.66312 20.1118 3.77564 20.2243C3.88816 20.3368 4.04077 20.4 4.1999 20.4H5.3999C5.55903 20.4 5.71164 20.3368 5.82417 20.2243C5.93669 20.1118 5.9999 19.9592 5.9999 19.8V18.6C5.9999 18.4409 5.93669 18.2883 5.82417 18.1758C5.71164 18.0632 5.55903 18 5.3999 18H4.1999ZM9.5999 5.40002C9.5999 5.24089 9.66312 5.08828 9.77564 4.97576C9.88816 4.86324 10.0408 4.80002 10.1999 4.80002H20.9999C21.159 4.80002 21.3116 4.86324 21.4242 4.97576C21.5367 5.08828 21.5999 5.24089 21.5999 5.40002C21.5999 5.55915 21.5367 5.71177 21.4242 5.82429C21.3116 5.93681 21.159 6.00002 20.9999 6.00002H10.1999C10.0408 6.00002 9.88816 5.93681 9.77564 5.82429C9.66312 5.71177 9.5999 5.55915 9.5999 5.40002ZM9.5999 12.6C9.5999 12.4409 9.66312 12.2883 9.77564 12.1758C9.88816 12.0632 10.0408 12 10.1999 12H20.9999C21.159 12 21.3116 12.0632 21.4242 12.1758C21.5367 12.2883 21.5999 12.4409 21.5999 12.6C21.5999 12.7592 21.5367 12.9118 21.4242 13.0243C21.3116 13.1368 21.159 13.2 20.9999 13.2H10.1999C10.0408 13.2 9.88816 13.1368 9.77564 13.0243C9.66312 12.9118 9.5999 12.7592 9.5999 12.6ZM9.5999 19.8C9.5999 19.6409 9.66312 19.4883 9.77564 19.3758C9.88816 19.2632 10.0408 19.2 10.1999 19.2H20.9999C21.159 19.2 21.3116 19.2632 21.4242 19.3758C21.5367 19.4883 21.5999 19.6409 21.5999 19.8C21.5999 19.9592 21.5367 20.1118 21.4242 20.2243C21.3116 20.3368 21.159 20.4 20.9999 20.4H10.1999C10.0408 20.4 9.88816 20.3368 9.77564 20.2243C9.66312 20.1118 9.5999 19.9592 9.5999 19.8Z" fill="black" fill-opacity="0.35"/>
</svg>
