<svg width="24" height="24" viewBox="0 0 24 24" fill="none" xmlns="http://www.w3.org/2000/svg">
<path d="M6.79955 5.828H16.2701C17.6226 5.828 18.9196 6.36527 19.876 7.32161C20.8323 8.27796 21.3696 9.57504 21.3696 10.9275C21.3696 12.28 20.8323 13.5771 19.876 14.5334C18.9196 15.4897 17.6226 16.027 16.2701 16.027H5.34255C4.4409 16.027 3.57618 15.6688 2.93861 15.0313C2.30105 14.3937 1.94287 13.529 1.94287 12.6273C1.94287 11.7257 2.30105 10.861 2.93861 10.2234C3.57618 9.58585 4.4409 9.22767 5.34255 9.22767H16.2701C16.7209 9.22767 17.1533 9.40676 17.4721 9.72554C17.7908 10.0443 17.9699 10.4767 17.9699 10.9275C17.9699 11.3783 17.7908 11.8107 17.4721 12.1295C17.1533 12.4483 16.7209 12.6273 16.2701 12.6273H6.79955" stroke="#B34962" stroke-linecap="round" stroke-linejoin="round"/>
</svg>
