<svg width="22" height="22" viewBox="0 0 22 22" fill="none" xmlns="http://www.w3.org/2000/svg">
<g clip-path="url(#clip0_595_1074)">
<path d="M20.8898 10.811C20.8846 15.2832 20.888 15.8865 20.888 16.4898C20.8898 17.6207 20.3913 18.5746 19.5852 19.3756C17.9473 21.0015 15.6441 21.6993 13.3548 21.8746C12.5865 21.9331 11.8096 21.952 11.0396 21.952C10.2696 21.952 9.49273 21.9331 8.72445 21.8746C6.43508 21.6993 4.13195 21.0015 2.49398 19.3756C1.68789 18.5746 1.19117 17.6224 1.19117 16.4898C1.19117 15.8865 1.19289 15.2815 1.18945 10.811H20.8898Z" fill="#FCC21B"/>
<path d="M20.6396 11.061C20.6349 15.3059 20.6377 15.8983 20.6377 16.4897C20.6393 17.5384 20.1799 18.4318 19.4092 19.1978C17.8295 20.7658 15.5934 21.4526 13.3359 21.6255C12.5762 21.6833 11.8061 21.7017 11.04 21.7017C10.2739 21.7017 9.50307 21.6833 8.74316 21.6255C6.48574 21.4526 4.24957 20.7658 2.66992 19.1978C1.89938 18.432 1.44141 17.5406 1.44141 16.4897C1.44141 15.898 1.44264 15.3043 1.43945 11.061H20.6396Z" stroke="black" stroke-opacity="0.8" stroke-width="0.5"/>
<path d="M20.9002 8.74316C19.3395 6.69097 16.8061 5.13894 14.3638 4.77285C13.6402 4.66457 12.9097 4.61644 12.1827 4.57691C10.5361 4.48754 8.82078 4.55629 7.18625 4.80722C5.39531 5.08222 3.45312 5.90207 2.04375 7.1791C1.60547 7.57613 1.29438 8.10379 1.04688 8.64176C0.479688 9.88097 0.230469 11.2989 0.230469 12.6619C0.230469 13.566 0.378281 14.4614 1.16547 14.9633C1.38891 15.106 1.65875 15.0957 1.90625 15.0424C2.28609 14.9582 2.5525 14.7708 2.93062 14.9788C3.49094 15.2847 3.60609 15.9413 3.91547 16.4518C4.47234 17.3678 5.71328 17.7769 6.69297 17.3885C7.68812 16.9949 8.36875 18.0107 9.18516 18.3853C10.158 18.8305 11.3267 18.6913 12.2566 18.2169C12.5109 18.0863 12.6948 17.8972 12.9166 17.715C13.3394 17.3644 13.8292 17.1547 14.3741 17.1375C15.0959 17.1152 15.8178 17.4383 16.5328 17.2183C17.1223 17.0396 17.5417 16.5033 17.8528 15.9877C18.1175 15.5494 18.3341 14.9857 18.9064 14.9272C19.4822 14.8705 19.96 15.4308 20.5547 15.2418C21.6083 14.9066 21.763 13.5007 21.775 12.5536C21.7905 11.3866 21.6238 10.0357 21.0634 8.99926C21.0119 8.90988 20.9603 8.82394 20.9002 8.74316Z" fill="#FFC5D0"/>
<path d="M7.22461 5.0542C8.84047 4.80616 10.5382 4.73816 12.1689 4.82666C12.8952 4.86615 13.6161 4.91361 14.3271 5.02002C16.6995 5.37576 19.1752 6.88887 20.6992 8.89111V8.89209C20.75 8.96032 20.796 9.03574 20.8467 9.12354C21.3752 10.1048 21.5406 11.4033 21.5254 12.5503C21.5195 13.0165 21.4775 13.5733 21.3184 14.0474C21.1596 14.5201 20.8989 14.8697 20.4785 15.0034C20.2752 15.0679 20.0838 15.012 19.8184 14.9028C19.5779 14.8039 19.2464 14.6423 18.8818 14.6782H18.8809C18.5041 14.7167 18.2511 14.9258 18.0674 15.1606C17.897 15.3786 17.7529 15.6698 17.6387 15.8589C17.3311 16.3687 16.953 16.8295 16.46 16.979H16.459C16.1568 17.0719 15.8439 17.0538 15.4912 17.0044C15.2383 16.9689 14.9509 16.9141 14.6592 16.894L14.3662 16.8872C13.7586 16.9064 13.217 17.1414 12.7578 17.522C12.5717 17.6749 12.4439 17.7998 12.2979 17.9009L12.1426 17.9946C11.2631 18.4432 10.176 18.5636 9.28906 18.1577C9.10945 18.0752 8.93053 17.9543 8.73828 17.814C8.55266 17.6784 8.347 17.5197 8.13965 17.3882C7.71542 17.1191 7.20761 16.9157 6.60059 17.1558C5.73404 17.4993 4.62237 17.1335 4.12891 16.3218C4.05978 16.2076 3.99984 16.0823 3.9375 15.9458C3.87684 15.8129 3.81166 15.6641 3.73926 15.5239C3.61083 15.2753 3.44336 15.0202 3.17285 14.8345L3.05078 14.7593C2.80093 14.622 2.57783 14.6156 2.37109 14.6558C2.2751 14.6744 2.1818 14.7035 2.09961 14.729L1.85254 14.7983C1.62599 14.847 1.43858 14.841 1.2998 14.7524C0.631583 14.3264 0.480469 13.557 0.480469 12.6616C0.480504 11.3273 0.725245 9.9467 1.27441 8.74658C1.51606 8.22133 1.81 7.72883 2.21191 7.36475C3.57975 6.12535 5.47463 5.32291 7.22461 5.0542Z" stroke="black" stroke-opacity="0.8" stroke-width="0.5"/>
<path d="M12.879 7.26858C12.8636 7.36827 12.8653 7.47483 12.8653 7.57108C12.8636 7.91139 12.8567 8.2517 12.8481 8.59202C12.8326 9.27264 12.8137 9.95155 12.8137 10.6322C12.8137 11.0722 12.6247 11.9969 13.1454 12.2014C13.649 12.4008 14.2781 12.2959 14.2764 11.5775C14.2747 11.373 14.2764 11.1684 14.2764 10.9656C14.2764 10.1097 14.2747 9.25545 14.2764 8.3978C14.2764 8.14858 14.2489 7.90452 14.2506 7.6553C14.2523 7.44733 14.2592 7.17577 14.1079 7.02452C13.9894 6.90592 13.814 6.88014 13.6611 6.87842C13.4806 6.87327 13.2331 6.84748 13.0698 6.94202C12.9478 7.01077 12.8997 7.13452 12.879 7.26858Z" fill="#40C0E7"/>
<path d="M12.8584 7.87356C12.604 7.71888 12.3995 7.49028 12.274 7.18091C12.1864 6.96434 12.1262 6.68247 12.1382 6.447C12.1675 5.88153 12.4786 5.35903 12.8807 4.97747C13.1179 4.75059 13.4067 4.46528 13.7436 4.40341C14.4586 4.27278 14.9587 5.44325 15.1065 5.97091C15.3747 6.92653 14.8264 7.92856 13.8003 8.02481C13.5322 8.05059 13.0939 8.0145 12.8584 7.87356Z" fill="#ED6C30"/>
<path d="M13.2331 7.67074C13.1265 7.59683 13.0423 7.48511 12.989 7.33558C12.9529 7.23074 12.9271 7.09324 12.9323 6.9798C12.9443 6.70652 13.075 6.45386 13.2417 6.26824C13.3414 6.15824 13.4617 6.01902 13.6026 5.9898C13.9017 5.92621 14.1114 6.49339 14.1715 6.74949C14.2832 7.21355 14.0546 7.69824 13.625 7.74464C13.515 7.75496 13.331 7.73777 13.2331 7.67074Z" fill="#FCC21B"/>
<path d="M16.7374 4.29006C16.722 4.38975 16.7237 4.49803 16.7237 4.59256C16.722 4.93459 16.7151 5.27319 16.7065 5.6135C16.691 6.29413 16.6721 6.97303 16.6721 7.65366C16.6721 8.09366 16.4831 9.01834 17.0038 9.22288C17.5057 9.42225 18.1382 9.31741 18.1348 8.59897C18.1331 8.39616 18.1348 8.19163 18.1348 7.98709C18.1348 7.13116 18.1331 6.27866 18.1348 5.41928C18.1348 5.17006 18.1073 4.92428 18.109 4.67678C18.1107 4.46709 18.1193 4.19725 17.9663 4.046C17.8478 3.92741 17.6724 3.90334 17.5195 3.89991C17.339 3.89475 17.0915 3.86897 16.9299 3.9635C16.8062 4.03225 16.7563 4.156 16.7374 4.29006Z" fill="#40C0E7"/>
<path d="M16.7165 4.89505C16.4638 4.74036 16.2575 4.51177 16.1321 4.20239C16.0444 3.98583 15.986 3.70395 15.9963 3.46849C16.0255 2.90474 16.3383 2.38052 16.7388 1.99895C16.976 1.77208 17.2647 1.48677 17.6016 1.42489C18.3166 1.29427 18.8185 2.46474 18.9663 2.99239C19.2344 3.94802 18.6844 4.95005 17.6583 5.0463C17.3902 5.07208 16.9502 5.03599 16.7165 4.89505Z" fill="#ED6C30"/>
<path d="M17.0844 4.69724C16.9778 4.62849 16.8919 4.52365 16.8386 4.38271C16.8025 4.28474 16.7768 4.15756 16.7819 4.05099C16.7922 3.79318 16.9246 3.55771 17.093 3.38412C17.1927 3.28099 17.3147 3.15037 17.4557 3.12459C17.7564 3.06443 17.9644 3.59552 18.028 3.83443C18.1397 4.26927 17.9094 4.72302 17.4797 4.76771C17.368 4.77802 17.1841 4.76084 17.0844 4.69724Z" fill="#FCC21B"/>
<path d="M9.964 2.9219C9.94853 3.02159 9.95025 3.12987 9.95025 3.2244C9.94853 3.56643 9.94166 3.90502 9.93306 4.24534C9.91759 4.92596 9.89869 5.60487 9.89869 6.28549C9.89869 6.72549 9.70963 7.65018 10.2304 7.85471C10.734 8.05409 11.3648 7.94924 11.3613 7.23081C11.3596 7.02799 11.3613 6.82346 11.3613 6.61893C11.3613 5.76299 11.3596 4.91049 11.3613 4.05112C11.3613 3.8019 11.3338 3.55612 11.3356 3.30862C11.3373 3.09893 11.3442 2.82909 11.1929 2.67784C11.0743 2.55924 10.899 2.53518 10.746 2.53174C10.5656 2.52659 10.3181 2.50081 10.1548 2.59534C10.0328 2.66409 9.98291 2.78784 9.964 2.9219Z" fill="#40C0E7"/>
<path d="M9.94337 3.52687C9.68899 3.37219 9.48446 3.14359 9.35899 2.83422C9.27134 2.61766 9.21118 2.33578 9.22321 2.10031C9.25243 1.53656 9.56352 1.01234 9.96571 0.63078C10.2029 0.405624 10.4916 0.118593 10.8285 0.0584364C11.5435 -0.0721886 12.0437 1.09828 12.1932 1.62594C12.4613 2.58156 11.9131 3.58359 10.8852 3.67984C10.6171 3.70562 10.1771 3.66953 9.94337 3.52687Z" fill="#ED6C30"/>
<path d="M10.3283 3.32913C10.2166 3.2535 10.1272 3.13663 10.0722 2.98194C10.0327 2.87366 10.0069 2.731 10.0138 2.61413C10.0258 2.33053 10.1633 2.06928 10.3386 1.8785C10.4418 1.76507 10.569 1.62241 10.7151 1.59147C11.0279 1.52788 11.2479 2.11225 11.3132 2.37694C11.4318 2.85647 11.1894 3.35835 10.7408 3.40647C10.624 3.4185 10.4315 3.3996 10.3283 3.32913Z" fill="#FCC21B"/>
<path d="M6.90443 6.90945C6.88896 7.00914 6.89068 7.1157 6.89068 7.21195C6.88896 7.55226 6.88209 7.89257 6.87349 8.23289C6.85802 8.91351 6.83912 9.59242 6.83912 10.273C6.83912 10.713 6.65006 11.6377 7.17084 11.8423C7.67271 12.0416 8.30349 11.9368 8.30177 11.2184C8.30006 11.0138 8.30177 10.8093 8.30177 10.6065C8.30177 9.75054 8.30006 8.89632 8.30177 8.03867C8.30177 7.78945 8.27427 7.54539 8.27599 7.29617C8.27771 7.0882 8.28459 6.81664 8.13334 6.66539C8.01474 6.54679 7.84115 6.52101 7.68646 6.51929C7.50599 6.51414 7.25849 6.48835 7.09693 6.58289C6.97318 6.64992 6.92334 6.77367 6.90443 6.90945Z" fill="#40C0E7"/>
<path d="M6.88184 7.51272C6.62747 7.35804 6.42294 7.12944 6.29747 6.82007C6.20981 6.60351 6.14966 6.32163 6.16169 6.08616C6.19091 5.52069 6.502 4.99819 6.90419 4.61663C7.14137 4.38975 7.43184 4.10444 7.767 4.04257C8.482 3.91194 8.98216 5.08241 9.13169 5.61007C9.39981 6.56569 8.85153 7.56772 7.82544 7.66397C7.55731 7.69147 7.11731 7.65538 6.88184 7.51272Z" fill="#ED6C30"/>
<path d="M7.25336 7.31508C7.13992 7.23774 7.04883 7.11914 6.99383 6.96102C6.9543 6.8493 6.9268 6.70664 6.93367 6.58633C6.94742 6.29586 7.08664 6.02945 7.26367 5.83352C7.37023 5.71664 7.49914 5.57055 7.64867 5.53961C7.96836 5.47258 8.1918 6.07242 8.25711 6.34227C8.3757 6.83211 8.13164 7.3443 7.67273 7.39414C7.55414 7.40617 7.3582 7.38727 7.25336 7.31508Z" fill="#FCC21B"/>
<path d="M3.59095 3.82766C3.57549 3.92907 3.5772 4.03563 3.5772 4.13016C3.57549 4.47048 3.56861 4.81079 3.56002 5.1511C3.54455 5.83001 3.52564 6.51063 3.52564 7.19126C3.52564 7.63126 3.33658 8.55423 3.85736 8.76048C4.36095 8.95813 4.99174 8.85501 4.9883 8.13657C4.98658 7.93204 4.9883 7.72923 4.9883 7.52469C4.9883 6.66876 4.98658 5.81454 4.9883 4.95688C4.9883 4.70766 4.9608 4.4636 4.96252 4.21266C4.96424 4.00469 4.97111 3.73313 4.81986 3.58188C4.70127 3.46329 4.52595 3.43751 4.37299 3.43407C4.19252 3.43063 3.94502 3.40313 3.78174 3.49766C3.6597 3.56813 3.60986 3.6936 3.59095 3.82766Z" fill="#40C0E7"/>
<path d="M3.56837 4.43093C3.31399 4.27624 3.10946 4.04765 2.98399 3.73999C2.89634 3.52343 2.83618 3.24155 2.84821 3.00608C2.87743 2.44061 3.18852 1.91811 3.59071 1.53655C3.8279 1.30968 4.11665 1.02265 4.45352 0.962489C5.16852 0.831864 5.66868 2.00233 5.81821 2.52999C6.08634 3.48561 5.53805 4.48765 4.51196 4.5839C4.24384 4.60796 3.80384 4.57186 3.56837 4.43093Z" fill="#ED6C30"/>
<path d="M3.95843 4.22635C3.85187 4.14557 3.76593 4.02526 3.71265 3.86369C3.67656 3.75026 3.65077 3.60244 3.65593 3.48041C3.66796 3.18479 3.79859 2.90979 3.96702 2.71041C4.06671 2.59182 4.18874 2.44229 4.32968 2.40963C4.63046 2.34088 4.84015 2.95447 4.90202 3.22947C5.01374 3.73135 4.78343 4.25385 4.35202 4.30541C4.24202 4.31916 4.05812 4.30026 3.95843 4.22635Z" fill="#FCC21B"/>
<path d="M21.0598 8.99927C21.0116 8.91161 20.9601 8.82395 20.8982 8.74317C20.8535 8.68474 20.8054 8.6263 20.759 8.56958C20.8174 8.85833 21.6613 13.8324 10.9174 13.8324C0.281796 13.8324 1.00195 8.95802 1.07414 8.57989C1.06383 8.60052 1.05352 8.62114 1.04492 8.64177C0.477734 9.88099 0.228516 11.299 0.228516 12.6619C0.228516 13.566 0.376328 14.4615 1.16352 14.9633C1.38695 15.106 1.6568 15.0957 1.9043 15.0424C2.28414 14.9582 2.55055 14.7708 2.92867 14.9788C3.48898 15.2847 3.60414 15.9413 3.91352 16.4518C4.47039 17.3679 5.71133 17.7769 6.69102 17.3885C7.68617 16.9949 8.3668 18.0107 9.1832 18.3854C10.156 18.8305 11.3248 18.6913 12.2546 18.2169C12.509 18.0863 12.6929 17.8972 12.9146 17.715C13.3374 17.3644 13.8273 17.1547 14.3721 17.1375C15.094 17.1152 15.8159 17.4383 16.5309 17.2183C17.1204 17.0396 17.5398 16.5033 17.8509 15.9877C18.1155 15.5494 18.3321 14.9857 18.9045 14.9272C19.4802 14.8705 19.958 15.4308 20.5527 15.2418C21.6063 14.9066 21.761 13.5007 21.773 12.5536C21.7851 11.3866 21.6201 10.0357 21.0598 8.99927Z" fill="#FFC5D0"/>
<path d="M21.0127 9.47974C21.4064 10.4058 21.5338 11.5364 21.5234 12.55C21.5175 13.0162 21.4755 13.5731 21.3164 14.0471C21.1576 14.5198 20.897 14.8694 20.4766 15.0032C20.2732 15.0677 20.0819 15.0118 19.8164 14.9026C19.576 14.8036 19.2444 14.6421 18.8799 14.678L18.8789 14.679C18.502 14.7175 18.2492 14.9264 18.0654 15.1614C17.9802 15.2703 17.9016 15.3973 17.8301 15.5208L17.6367 15.8586C17.3291 16.3685 16.9511 16.8293 16.458 16.9788L16.457 16.9797C16.1549 17.0726 15.8419 17.0536 15.4893 17.0042C15.2363 16.9687 14.949 16.9139 14.6572 16.8938L14.3643 16.8879C13.7567 16.9071 13.215 17.1412 12.7559 17.5217C12.5696 17.6748 12.4421 17.8004 12.2959 17.9016L12.1406 17.9944C11.2611 18.4429 10.174 18.5643 9.28711 18.1584C9.1074 18.0759 8.92867 17.9551 8.73633 17.8147C8.55062 17.6791 8.34517 17.5196 8.1377 17.3879C7.71349 17.1189 7.2056 16.9164 6.59863 17.1565C5.73213 17.4998 4.62037 17.1332 4.12695 16.3215H4.12598C4.05697 16.2075 3.99781 16.0819 3.93555 15.9456C3.87487 15.8127 3.80972 15.6639 3.7373 15.5237C3.59055 15.2396 3.39205 14.947 3.04785 14.759C2.79835 14.6222 2.57564 14.6154 2.36914 14.6555C2.27316 14.6742 2.17984 14.7033 2.09766 14.7288L1.85059 14.7981C1.62402 14.8467 1.43664 14.8408 1.29785 14.7522C0.629835 14.3262 0.478564 13.5575 0.478516 12.6624C0.478516 11.7049 0.605934 10.7235 0.879883 9.802C0.998747 10.3135 1.25877 10.9197 1.79492 11.5149C3.00528 12.8584 5.57143 14.0822 10.917 14.0823C16.3172 14.0823 18.8822 12.8334 20.0771 11.4739C20.7034 10.7612 20.9365 10.0356 21.0127 9.47974Z" stroke="black" stroke-opacity="0.8" stroke-width="0.5"/>
</g>
<defs>
<clipPath id="clip0_595_1074">
<rect width="22" height="22" fill="white"/>
</clipPath>
</defs>
</svg>
