<svg width="24" height="24" viewBox="0 0 24 24" fill="none" xmlns="http://www.w3.org/2000/svg">
<path d="M17.7398 14.869C17.7411 15.1484 17.7185 15.4257 17.6718 15.701C17.4743 17.0637 16.7929 18.3097 15.7522 19.2113C14.7115 20.1128 13.381 20.6096 12.0041 20.6108C10.6272 20.6121 9.2959 20.1176 8.25361 19.2179C7.21131 18.3182 6.52771 17.0733 6.32781 15.711C6.28177 15.4327 6.25935 15.1511 6.26081 14.869C6.26081 13.434 7.42781 10.985 8.70981 8.71902C9.61578 7.13778 10.5791 5.59008 11.5978 4.07902C11.6427 4.01384 11.7027 3.96055 11.7727 3.92373C11.8428 3.88691 11.9207 3.86768 11.9998 3.86768C12.0789 3.86768 12.1569 3.88691 12.2269 3.92373C12.2969 3.96055 12.357 4.01384 12.4018 4.07902C13.0038 4.97902 14.1908 6.77702 15.2908 8.71902C16.5718 10.985 17.7398 13.434 17.7398 14.869Z" fill="#FFBFC5"/>
<path d="M11.9998 17.8339C10.7379 17.8308 9.51238 17.4109 8.51376 16.6394C7.51515 15.8679 6.7994 14.7881 6.47781 13.5679C6.25152 14.2588 6.19998 14.9951 6.32781 15.7109C6.52771 17.0732 7.21131 18.318 8.25361 19.2177C9.2959 20.1174 10.6272 20.6119 12.0041 20.6107C13.381 20.6095 14.7115 20.1127 15.7522 19.2111C16.7929 18.3096 17.4743 17.0635 17.6718 15.7009C17.7185 15.4255 17.7408 15.1482 17.7388 14.8689C17.7236 14.4288 17.6503 13.9927 17.5208 13.5719C17.2008 14.7925 16.4855 15.8727 15.4867 16.6438C14.4878 17.4149 13.2617 17.8334 11.9998 17.8339Z" fill="#FF808C"/>
<path d="M6.26 14.869C6.25867 15.1516 6.28133 15.4323 6.328 15.711C5.99216 15.788 5.64857 15.8263 5.304 15.825C4.73873 15.8255 4.1789 15.7146 3.65654 15.4985C3.13418 15.2825 2.65955 14.9655 2.25979 14.5659C1.86004 14.1662 1.54301 13.6917 1.32684 13.1694C1.11067 12.647 0.999606 12.0872 1 11.522C1 9.58997 3.84 5.21897 4.903 3.60197C4.94818 3.53739 5.00826 3.48467 5.07816 3.44826C5.14805 3.41186 5.22569 3.39285 5.3045 3.39285C5.38331 3.39285 5.46095 3.41186 5.53085 3.44826C5.60074 3.48467 5.66083 3.53739 5.706 3.60197C6.80975 5.24506 7.81292 6.95352 8.71 8.71797C7.428 10.985 6.26 13.434 6.26 14.868M23 11.521C23.0007 12.1735 22.8529 12.8177 22.5677 13.4046C22.2826 13.9916 21.8676 14.506 21.3542 14.9088C20.8408 15.3116 20.2424 15.5922 19.6044 15.7295C18.9665 15.8667 18.3056 15.857 17.672 15.701C17.7193 15.4256 17.7417 15.1483 17.739 14.869C17.739 13.434 16.572 10.985 15.29 8.71897C16.1851 6.95227 17.1887 5.24267 18.295 3.59997C18.3401 3.53519 18.4003 3.48228 18.4703 3.44575C18.5403 3.40922 18.618 3.39014 18.697 3.39014C18.776 3.39014 18.8537 3.40922 18.9237 3.44575C18.9937 3.48228 19.0539 3.53519 19.099 3.59997C20.159 5.21797 23 9.58897 23 11.521Z" fill="#FF808C"/>
<path d="M6.26 14.869C6.25867 15.1516 6.28133 15.4323 6.328 15.711C5.99216 15.788 5.64857 15.8263 5.304 15.825C4.73873 15.8255 4.1789 15.7146 3.65654 15.4985C3.13418 15.2825 2.65955 14.9655 2.25979 14.5659C1.86004 14.1662 1.54301 13.6917 1.32684 13.1694C1.11067 12.647 0.999606 12.0872 1 11.522C1 9.58997 3.84 5.21897 4.903 3.60197C4.94818 3.53739 5.00826 3.48467 5.07816 3.44826C5.14805 3.41186 5.22569 3.39285 5.3045 3.39285C5.38331 3.39285 5.46095 3.41186 5.53085 3.44826C5.60074 3.48467 5.66083 3.53739 5.706 3.60197C6.80975 5.24506 7.81292 6.95352 8.71 8.71797C7.428 10.985 6.26 13.434 6.26 14.868M23 11.521C23.0007 12.1735 22.8529 12.8177 22.5677 13.4046C22.2826 13.9916 21.8676 14.506 21.3542 14.9088C20.8408 15.3116 20.2424 15.5922 19.6044 15.7295C18.9665 15.8667 18.3056 15.857 17.672 15.701C17.7193 15.4256 17.7417 15.1483 17.739 14.869C17.739 13.434 16.572 10.985 15.29 8.71897C16.1851 6.95227 17.1887 5.24267 18.295 3.59997C18.3401 3.53519 18.4003 3.48228 18.4703 3.44575C18.5403 3.40922 18.618 3.39014 18.697 3.39014C18.776 3.39014 18.8537 3.40922 18.9237 3.44575C18.9937 3.48228 19.0539 3.53519 19.099 3.59997C20.159 5.21797 23 9.58897 23 11.521Z" stroke="#191919" stroke-linecap="round" stroke-linejoin="round"/>
<path d="M11.9998 12.956V16.782M10.0868 14.869H13.9128M17.7398 14.869C17.7411 15.1484 17.7185 15.4257 17.6718 15.701C17.4743 17.0637 16.7929 18.3097 15.7522 19.2113C14.7115 20.1128 13.381 20.6096 12.0041 20.6108C10.6272 20.6121 9.2959 20.1176 8.25361 19.2179C7.21131 18.3182 6.52771 17.0733 6.32781 15.711C6.28177 15.4327 6.25935 15.1511 6.26081 14.869C6.26081 13.434 7.42781 10.985 8.70981 8.71902C9.61578 7.13778 10.5791 5.59008 11.5978 4.07902C11.6427 4.01384 11.7027 3.96055 11.7727 3.92373C11.8428 3.88691 11.9207 3.86768 11.9998 3.86768C12.0789 3.86768 12.1569 3.88691 12.2269 3.92373C12.2969 3.96055 12.357 4.01384 12.4018 4.07902C13.0038 4.97902 14.1908 6.77702 15.2908 8.71902C16.5718 10.985 17.7398 13.434 17.7398 14.869Z" stroke="#191919" stroke-linecap="round" stroke-linejoin="round"/>
</svg>
