<svg width="16" height="23" viewBox="0 0 16 23" fill="none" xmlns="http://www.w3.org/2000/svg">
<path d="M8.065 0.729992C8.02263 0.659811 7.96286 0.601761 7.89146 0.561467C7.82007 0.521173 7.73948 0.5 7.6575 0.5C7.57552 0.5 7.49493 0.521173 7.42354 0.561467C7.35215 0.601761 7.29237 0.659811 7.25 0.729992C5.734 3.21499 0.5 11.986 0.5 15.343C0.5 17.2413 1.25409 19.0618 2.59638 20.4041C3.93867 21.7464 5.75921 22.5005 7.6575 22.5005C9.55579 22.5005 11.3763 21.7464 12.7186 20.4041C14.0609 19.0618 14.815 17.2413 14.815 15.343C14.815 11.986 9.582 3.21299 8.065 0.729992Z" fill="#FFBFC5"/>
<path d="M7.65798 19.608C6.04034 19.6113 4.46944 19.0657 3.20222 18.0602C1.93501 17.0547 1.04648 15.649 0.681977 14.073C0.576431 14.4886 0.515751 14.9144 0.500977 15.343C0.500977 17.2412 1.25502 19.0616 2.59721 20.4038C3.93941 21.746 5.75982 22.5 7.65798 22.5C9.55613 22.5 11.3765 21.746 12.7187 20.4038C14.0609 19.0616 14.815 17.2412 14.815 15.343C14.8002 14.9144 14.7395 14.4886 14.634 14.073C14.2695 15.649 13.3809 17.0547 12.1137 18.0602C10.8465 19.0657 9.27562 19.6113 7.65798 19.608Z" fill="#FF808C"/>
<path d="M8.065 0.729992C8.02263 0.659811 7.96286 0.601761 7.89146 0.561467C7.82007 0.521173 7.73948 0.5 7.6575 0.5C7.57552 0.5 7.49493 0.521173 7.42354 0.561467C7.35215 0.601761 7.29237 0.659811 7.25 0.729992C5.734 3.21499 0.5 11.986 0.5 15.343C0.5 17.2413 1.25409 19.0618 2.59638 20.4041C3.93867 21.7464 5.75921 22.5005 7.6575 22.5005C9.55579 22.5005 11.3763 21.7464 12.7186 20.4041C14.0609 19.0618 14.815 17.2413 14.815 15.343C14.815 11.986 9.582 3.21299 8.065 0.729992Z" stroke="#191919" stroke-linecap="round" stroke-linejoin="round"/>
<path d="M7.65793 19.6079C6.52379 19.6101 5.43475 19.164 4.62793 18.3669" stroke="#191919" stroke-linecap="round" stroke-linejoin="round"/>
</svg>
