<svg width="23" height="23" viewBox="0 0 23 23" fill="none" xmlns="http://www.w3.org/2000/svg">
<path d="M0.5 6.91503V3.24803C0.500265 3.00517 0.596857 2.77234 0.768583 2.60061C0.940309 2.42889 1.17314 2.3323 1.416 2.33203H20.666C20.7864 2.3319 20.9056 2.3555 21.0168 2.40147C21.1281 2.44745 21.2292 2.5149 21.3144 2.59997C21.3995 2.68504 21.4671 2.78606 21.5132 2.89726C21.5593 3.00846 21.583 3.12766 21.583 3.24803V6.91503H0.5Z" fill="#FF808C"/>
<path d="M0.5 4.62303V3.24803C0.500265 3.00517 0.596857 2.77234 0.768583 2.60061C0.940309 2.42889 1.17314 2.3323 1.416 2.33203H20.666C20.7864 2.3319 20.9056 2.3555 21.0168 2.40147C21.1281 2.44745 21.2292 2.5149 21.3144 2.59997C21.3995 2.68504 21.4671 2.78606 21.5132 2.89726C21.5593 3.00846 21.583 3.12766 21.583 3.24803V4.62303H0.5Z" fill="#FFBFC5"/>
<path d="M0.5 6.91504H21.583V20.665C21.583 20.9082 21.4864 21.1415 21.3144 21.3135C21.1424 21.4854 20.9092 21.582 20.666 21.582H1.416C1.17297 21.5818 0.939984 21.485 0.768229 21.3131C0.596475 21.1412 0.5 20.9081 0.5 20.665V6.91504Z" fill="white"/>
<path d="M5.083 0.5V5.083M17 0.5V5.083M0.5 6.916H21.583M6 17.458H10.583M20.666 2.333H1.416C1.17314 2.33326 0.940309 2.42986 0.768583 2.60158C0.596857 2.77331 0.500265 3.00614 0.5 3.249V20.666C0.5 21.172 0.91 21.583 1.416 21.583H20.666C21.172 21.583 21.583 21.173 21.583 20.666V3.249C21.5827 3.00597 21.486 2.77298 21.3141 2.60123C21.1421 2.42947 20.909 2.333 20.666 2.333Z" stroke="#191919" stroke-linecap="round" stroke-linejoin="round"/>
<path d="M8.29102 17.4571V10.5821C8.29126 10.4957 8.26708 10.411 8.22126 10.3378C8.17544 10.2646 8.10985 10.2058 8.03206 10.1683C7.95428 10.1308 7.86746 10.116 7.78164 10.1257C7.69582 10.1354 7.61448 10.1691 7.54702 10.2231L5.99902 11.4621M14.249 17.4571L16.936 10.8071C16.9788 10.7378 17.0011 10.6578 17.0002 10.5764C16.9993 10.4949 16.9753 10.4154 16.931 10.3471C16.8847 10.2771 16.8215 10.2198 16.7472 10.1807C16.6729 10.1415 16.59 10.1217 16.506 10.1231H12.874C12.7525 10.1236 12.6362 10.1722 12.5504 10.2582C12.4646 10.3442 12.4163 10.4606 12.416 10.5821V11.4981" stroke="#191919" stroke-linecap="round" stroke-linejoin="round"/>
</svg>
