<svg width="33" height="14" viewBox="0 0 33 14" fill="none" xmlns="http://www.w3.org/2000/svg">
<path d="M6.57099 12.8216H25.346C28.791 12.8216 31.5835 10.0284 31.5835 6.58406C31.5835 3.13906 28.791 0.346558 25.346 0.346558H6.57099C3.12599 0.346558 0.333493 3.13906 0.333493 6.58406C0.333493 10.0284 3.12599 12.8216 6.57099 12.8216Z" stroke="black" stroke-width="0.666667" stroke-miterlimit="10" stroke-linecap="round" stroke-linejoin="round"/>
<path d="M25.4305 12.8346C21.9784 12.8346 19.1799 10.0361 19.1799 6.584C19.1799 3.13187 21.9784 0.333374 25.4305 0.333374C28.8827 0.333374 31.6812 3.13187 31.6812 6.584C31.6812 10.0361 28.8827 12.8346 25.4305 12.8346Z" stroke="black" stroke-width="0.666667" stroke-miterlimit="10" stroke-linecap="round" stroke-linejoin="round"/>
<path d="M21.3068 1.86279C18.7506 4.18342 18.56 8.13654 20.8806 10.6922C23.2012 13.2478 27.1543 13.4384 29.71 11.1178" stroke="black" stroke-width="0.666667" stroke-miterlimit="10" stroke-linecap="round" stroke-linejoin="round"/>
</svg>
