<svg width="33" height="14" viewBox="0 0 33 14" fill="none" xmlns="http://www.w3.org/2000/svg">
<path d="M25.4437 12.8216H6.66865C3.22365 12.8216 0.431152 10.0284 0.431152 6.58406C0.431152 3.13906 3.22365 0.346558 6.66865 0.346558H25.4437C28.8887 0.346558 31.6812 3.13906 31.6812 6.58406C31.6812 10.0284 28.8887 12.8216 25.4437 12.8216Z" stroke="black" stroke-width="0.666667" stroke-miterlimit="10" stroke-linecap="round" stroke-linejoin="round"/>
<path d="M6.58412 12.8346C10.0362 12.8346 12.8347 10.0361 12.8347 6.584C12.8347 3.13187 10.0362 0.333374 6.58412 0.333374C3.132 0.333374 0.333496 3.13187 0.333496 6.584C0.333496 10.0361 3.132 12.8346 6.58412 12.8346Z" stroke="black" stroke-width="0.666667" stroke-miterlimit="10" stroke-linecap="round" stroke-linejoin="round"/>
<path d="M10.7078 1.86279C13.2641 4.18342 13.4547 8.13654 11.1341 10.6922C8.81344 13.2478 4.86031 13.4384 2.30469 11.1178" stroke="black" stroke-width="0.666667" stroke-miterlimit="10" stroke-linecap="round" stroke-linejoin="round"/>
</svg>
