<svg width="24" height="24" viewBox="0 0 24 24" fill="none" xmlns="http://www.w3.org/2000/svg">
<path d="M11.9871 21.9702C6.47229 21.9702 2.00195 17.4999 2.00195 11.9851C2.00195 6.47033 6.47229 2 11.9871 2C17.5018 2 21.9722 6.47033 21.9722 11.9851C21.9722 17.4999 17.5018 21.9702 11.9871 21.9702ZM11.9871 19.9732C14.1056 19.9732 16.1374 19.1316 17.6355 17.6335C19.1335 16.1355 19.9751 14.1037 19.9751 11.9851C19.9751 9.86654 19.1335 7.83473 17.6355 6.33668C16.1374 4.83862 14.1056 3.99702 11.9871 3.99702C9.86849 3.99702 7.83669 4.83862 6.33863 6.33668C4.84057 7.83473 3.99897 9.86654 3.99897 11.9851C3.99897 14.1037 4.84057 16.1355 6.33863 17.6335C7.83669 19.1316 9.86849 19.9732 11.9871 19.9732ZM6.99451 12.9836H15.9811V14.9806H11.9871V17.9762L6.99451 12.9836ZM11.9871 8.98958V5.99404L16.9796 10.9866H7.99302V8.98958H11.9871Z" fill="#B34962"/>
</svg>
