<svg width="16" height="16" viewBox="0 0 16 16" fill="none" xmlns="http://www.w3.org/2000/svg">
<g clip-path="url(#clip0_1268_723)">
<path d="M12.6668 7.66666H13.0002C13.6235 7.66666 13.9348 7.66666 14.1668 7.80066C14.3188 7.88843 14.4451 8.01465 14.5328 8.16666C14.6668 8.39866 14.6668 8.70999 14.6668 9.33333C14.6668 9.95666 14.6668 10.268 14.5328 10.5C14.4451 10.652 14.3188 10.7782 14.1668 10.866C13.9348 11 13.6235 11 13.0002 11H12.6668M3.3335 7.66666H3.00016C2.37683 7.66666 2.0655 7.66666 1.8335 7.80066C1.68149 7.88843 1.55526 8.01465 1.4675 8.16666C1.3335 8.39866 1.3335 8.70999 1.3335 9.33333C1.3335 9.95666 1.3335 10.268 1.4675 10.5C1.55526 10.652 1.68149 10.7782 1.8335 10.866C2.0655 11 2.37683 11 3.00016 11H3.3335M7.3335 5.33333H8.66683C10.5522 5.33333 11.4955 5.33333 12.0808 5.91933C12.6668 6.50466 12.6668 7.44799 12.6668 9.33333C12.6668 11.2187 12.6668 12.162 12.0808 12.7473C11.4955 13.3333 10.5522 13.3333 8.66683 13.3333H8.00016C8.00016 13.3333 7.66683 14.6667 5.3335 14.6667C5.3335 14.6667 6.00016 13.994 6.00016 13.322C4.96483 13.2907 4.34683 13.1753 3.9195 12.7473C3.3335 12.162 3.3335 11.2187 3.3335 9.33333C3.3335 7.44799 3.3335 6.50466 3.9195 5.91933C4.50483 5.33333 5.44816 5.33333 7.3335 5.33333Z" stroke="#191919" stroke-linejoin="round"/>
<path d="M9 2.33333C9 2.59854 8.89464 2.8529 8.70711 3.04044C8.51957 3.22797 8.26522 3.33333 8 3.33333C7.73478 3.33333 7.48043 3.22797 7.29289 3.04044C7.10536 2.8529 7 2.59854 7 2.33333C7 2.06811 7.10536 1.81376 7.29289 1.62622C7.48043 1.43869 7.73478 1.33333 8 1.33333C8.26522 1.33333 8.51957 1.43869 8.70711 1.62622C8.89464 1.81376 9 2.06811 9 2.33333Z" stroke="#191919"/>
<path d="M8 3.33333V5.33333M6 8V8.66666M10 8V8.66666" stroke="#191919" stroke-linecap="round" stroke-linejoin="round"/>
<path d="M6.66699 11C6.66699 11 7.11166 11.3333 8.00033 11.3333C8.88899 11.3333 9.33366 11 9.33366 11" stroke="#191919" stroke-linecap="round"/>
</g>
<defs>
<clipPath id="clip0_1268_723">
<rect width="16" height="16" fill="white"/>
</clipPath>
</defs>
</svg>
