<svg width="18" height="18" viewBox="0 0 18 18" fill="none" xmlns="http://www.w3.org/2000/svg">
<path d="M2.5 12C2.5 11.8674 2.55268 11.7402 2.64645 11.6464C2.74021 11.5527 2.86739 11.5 3 11.5H10C10.1326 11.5 10.2598 11.5527 10.3536 11.6464C10.4473 11.7402 10.5 11.8674 10.5 12C10.5 12.1326 10.4473 12.2598 10.3536 12.3536C10.2598 12.4473 10.1326 12.5 10 12.5H3C2.86739 12.5 2.74021 12.4473 2.64645 12.3536C2.55268 12.2598 2.5 12.1326 2.5 12ZM3 14C2.86739 14 2.74021 14.0527 2.64645 14.1464C2.55268 14.2402 2.5 14.3674 2.5 14.5C2.5 14.6326 2.55268 14.7598 2.64645 14.8536C2.74021 14.9473 2.86739 15 3 15H10C10.1326 15 10.2598 14.9473 10.3536 14.8536C10.4473 14.7598 10.5 14.6326 10.5 14.5C10.5 14.3674 10.4473 14.2402 10.3536 14.1464C10.2598 14.0527 10.1326 14 10 14H3ZM4 7.5V6H5V7.5H6.5V8.5H5V10H4V8.5H2.5V7.5H4Z" fill="black" fill-opacity="0.35"/>
<path fill-rule="evenodd" clip-rule="evenodd" d="M4.5 0C4.10218 0 3.72064 0.158035 3.43934 0.43934C3.15804 0.720644 3 1.10218 3 1.5H1.5C1.10218 1.5 0.720644 1.65804 0.43934 1.93934C0.158035 2.22064 0 2.60218 0 3V16.5C0 16.8978 0.158035 17.2794 0.43934 17.5607C0.720644 17.842 1.10218 18 1.5 18H11.5C11.8978 18 12.2794 17.842 12.5607 17.5607C12.842 17.2794 13 16.8978 13 16.5V3C13 2.60218 12.842 2.22064 12.5607 1.93934C12.2794 1.65804 11.8978 1.5 11.5 1.5H10C10 1.10218 9.84196 0.720644 9.56066 0.43934C9.27936 0.158035 8.89782 0 8.5 0H4.5ZM8.5 3C8.63261 3 8.75979 2.94732 8.85355 2.85355C8.94732 2.75979 9 2.63261 9 2.5V1.5C9 1.36739 8.94732 1.24021 8.85355 1.14645C8.75979 1.05268 8.63261 1 8.5 1H4.5C4.36739 1 4.24021 1.05268 4.14645 1.14645C4.05268 1.24021 4 1.36739 4 1.5V2.5C4 2.63261 4.05268 2.75979 4.14645 2.85355C4.24021 2.94732 4.36739 3 4.5 3H8.5ZM3 2.5C3 2.89782 3.15804 3.27936 3.43934 3.56066C3.72064 3.84196 4.10218 4 4.5 4H8.5C8.89782 4 9.27936 3.84196 9.56066 3.56066C9.84196 3.27936 10 2.89782 10 2.5H11.5C11.6326 2.5 11.7598 2.55268 11.8536 2.64645C11.9473 2.74021 12 2.86739 12 3V16.5C12 16.6326 11.9473 16.7598 11.8536 16.8536C11.7598 16.9473 11.6326 17 11.5 17H1.5C1.36739 17 1.24021 16.9473 1.14645 16.8536C1.05268 16.7598 1 16.6326 1 16.5V3C1 2.86739 1.05268 2.74021 1.14645 2.64645C1.24021 2.55268 1.36739 2.5 1.5 2.5H3ZM15 5.5C15 5.10218 15.158 4.72064 15.4393 4.43934C15.7206 4.15804 16.1022 4 16.5 4C16.8978 4 17.2794 4.15804 17.5607 4.43934C17.842 4.72064 18 5.10218 18 5.5V15.6515L16.5 17.9015L15 15.6515V5.5ZM16.5 5C16.3674 5 16.2402 5.05268 16.1464 5.14645C16.0527 5.24021 16 5.36739 16 5.5V6.5H17V5.5C17 5.36739 16.9473 5.24021 16.8536 5.14645C16.7598 5.05268 16.6326 5 16.5 5ZM16.5 16.0985L17 15.3485V7.5H16V15.3485L16.5 16.0985Z" fill="black" fill-opacity="0.35"/>
</svg>
