<svg width="26" height="26" viewBox="0 0 26 26" fill="none" xmlns="http://www.w3.org/2000/svg">
<path d="M7.5835 19.5V18.4167C7.5835 16.9801 8.15418 15.6023 9.17 14.5865C10.1858 13.5707 11.5636 13 13.0002 13M13.0002 13C14.4368 13 15.8145 13.5707 16.8303 14.5865C17.8461 15.6023 18.4168 16.9801 18.4168 18.4167V19.5M13.0002 13C13.8621 13 14.6888 12.6576 15.2983 12.0481C15.9078 11.4386 16.2502 10.612 16.2502 9.75C16.2502 8.88805 15.9078 8.0614 15.2983 7.4519C14.6888 6.84241 13.8621 6.5 13.0002 6.5C12.1382 6.5 11.3116 6.84241 10.7021 7.4519C10.0926 8.0614 9.75016 8.88805 9.75016 9.75C9.75016 10.612 10.0926 11.4386 10.7021 12.0481C11.3116 12.6576 12.1382 13 13.0002 13ZM1.0835 19.5V18.4167C1.0835 17.5547 1.42591 16.7281 2.0354 16.1186C2.64489 15.5091 3.47154 15.1667 4.3335 15.1667M4.3335 15.1667C4.90813 15.1667 5.45923 14.9384 5.86556 14.5321C6.27189 14.1257 6.50016 13.5746 6.50016 13C6.50016 12.4254 6.27189 11.8743 5.86556 11.4679C5.45923 11.0616 4.90813 10.8333 4.3335 10.8333C3.75886 10.8333 3.20776 11.0616 2.80143 11.4679C2.3951 11.8743 2.16683 12.4254 2.16683 13C2.16683 13.5746 2.3951 14.1257 2.80143 14.5321C3.20776 14.9384 3.75886 15.1667 4.3335 15.1667ZM24.9168 19.5V18.4167C24.9168 17.5547 24.5744 16.7281 23.9649 16.1186C23.3554 15.5091 22.5288 15.1667 21.6668 15.1667M21.6668 15.1667C22.2415 15.1667 22.7926 14.9384 23.1989 14.5321C23.6052 14.1257 23.8335 13.5746 23.8335 13C23.8335 12.4254 23.6052 11.8743 23.1989 11.4679C22.7926 11.0616 22.2415 10.8333 21.6668 10.8333C21.0922 10.8333 20.5411 11.0616 20.1348 11.4679C19.7284 11.8743 19.5002 12.4254 19.5002 13C19.5002 13.5746 19.7284 14.1257 20.1348 14.5321C20.5411 14.9384 21.0922 15.1667 21.6668 15.1667Z" stroke="#A6A6A6" stroke-width="1.5" stroke-linecap="round" stroke-linejoin="round"/>
</svg>
