<svg width="24" height="24" viewBox="0 0 24 24" fill="none" xmlns="http://www.w3.org/2000/svg">
<path d="M11.827 0.935539C8.45035 0.952555 5.12438 2.50745 2.95922 5.43413C-0.314059 9.85866 0.187738 15.9023 3.88969 19.7307L2.14416 22.09L9.2326 21.03L8.17247 13.9416L6.15043 16.6748C4.08418 14.1256 3.91341 10.4101 5.95543 7.64996C7.39336 5.70624 9.60525 4.67321 11.8503 4.66154C12.6241 4.65746 13.3937 4.77558 14.1306 5.01155L13.8042 2.82952C12.7072 2.60596 11.5781 2.5901 10.4753 2.78279C7.69875 3.12601 5.13179 4.65394 3.53039 7.05849C5.20149 3.9699 8.3948 2.09359 11.7824 2.00799C12.5641 1.98838 13.3452 2.06457 14.1083 2.23487L16.3868 1.89418C14.9272 1.24234 13.3718 0.927617 11.8271 0.935445L11.827 0.935539ZM21.8081 1.96937L14.7198 3.02921L15.7799 10.1176L17.7076 7.51196C19.686 10.0568 19.8213 13.7017 17.8102 16.4202C15.9248 18.9687 12.7092 19.9509 9.8325 19.1186L10.1382 21.1623C11.4787 21.4203 12.8602 21.3711 14.179 21.0184C15.9344 20.7391 17.6168 19.9848 19.0146 18.7811C16.7085 21.3429 13.267 22.4146 10.0266 21.7971L7.41099 22.1882C12.053 24.2366 17.6486 22.8805 20.7943 18.6286C24.0347 14.2484 23.5758 8.28127 19.9748 4.44751L21.8082 1.96941L21.8081 1.96937Z" fill="url(#paint0_linear_1593_158)"/>
<defs>
<linearGradient id="paint0_linear_1593_158" x1="11.8768" y1="0.935303" x2="11.8768" y2="23.1269" gradientUnits="userSpaceOnUse">
<stop offset="0.480769" stop-color="#FF808C"/>
<stop offset="1" stop-color="#B34962"/>
</linearGradient>
</defs>
</svg>
