<svg width="16" height="16" viewBox="0 0 16 16" fill="none" xmlns="http://www.w3.org/2000/svg">
<path d="M4.66651 14C4.29984 14 3.98606 13.8696 3.72517 13.6087C3.46428 13.3478 3.33362 13.0338 3.33317 12.6667V4C3.14428 4 2.98606 3.936 2.85851 3.808C2.73095 3.68 2.66695 3.52178 2.66651 3.33333C2.66606 3.14489 2.73006 2.98667 2.85851 2.85867C2.98695 2.73067 3.14517 2.66667 3.33317 2.66667H5.99984C5.99984 2.47778 6.06384 2.31956 6.19184 2.192C6.31984 2.06444 6.47806 2.00044 6.66651 2H9.33317C9.52206 2 9.68051 2.064 9.80851 2.192C9.93651 2.32 10.0003 2.47822 9.99984 2.66667H12.6665C12.8554 2.66667 13.0138 2.73067 13.1418 2.85867C13.2698 2.98667 13.3336 3.14489 13.3332 3.33333C13.3327 3.52178 13.2687 3.68022 13.1412 3.80867C13.0136 3.93711 12.8554 4.00089 12.6665 4V12.6667C12.6665 13.0333 12.5361 13.3473 12.2752 13.6087C12.0143 13.87 11.7003 14.0004 11.3332 14H4.66651ZM6.66651 11.3333C6.8554 11.3333 7.01384 11.2693 7.14184 11.1413C7.26984 11.0133 7.33362 10.8551 7.33317 10.6667V6C7.33317 5.81111 7.26917 5.65289 7.14117 5.52533C7.01317 5.39778 6.85495 5.33378 6.66651 5.33333C6.47806 5.33289 6.31984 5.39689 6.19184 5.52533C6.06384 5.65378 5.99984 5.812 5.99984 6V10.6667C5.99984 10.8556 6.06384 11.014 6.19184 11.142C6.31984 11.27 6.47806 11.3338 6.66651 11.3333ZM9.33317 11.3333C9.52206 11.3333 9.68051 11.2693 9.80851 11.1413C9.93651 11.0133 10.0003 10.8551 9.99984 10.6667V6C9.99984 5.81111 9.93584 5.65289 9.80784 5.52533C9.67984 5.39778 9.52162 5.33378 9.33317 5.33333C9.14473 5.33289 8.98651 5.39689 8.85851 5.52533C8.73051 5.65378 8.66651 5.812 8.66651 6V10.6667C8.66651 10.8556 8.73051 11.014 8.85851 11.142C8.98651 11.27 9.14473 11.3338 9.33317 11.3333Z" fill="#F24822"/>
</svg>
