<svg width="24" height="24" viewBox="0 0 24 24" fill="none" xmlns="http://www.w3.org/2000/svg">
<path fill-rule="evenodd" clip-rule="evenodd" d="M7.09957 2.75906L7.13623 2.60304C7.20623 2.3131 7.3209 1.88664 7.55757 1.46669C7.7989 1.03893 8.1729 0.605324 8.75957 0.319936C9.34423 0.0358485 10.0769 -0.0701157 10.9829 0.0468999C11.9829 0.176917 13.9916 0.49936 15.7662 1.37958C17.5509 2.26499 19.2229 3.78815 19.2229 6.32478C19.2229 7.63536 18.7029 9.04149 18.1989 9.95812C17.9569 10.3989 17.6696 10.8201 17.3816 11.047C17.3156 11.099 17.2216 11.164 17.1049 11.2095C16.7849 12.2351 16.1478 13.1392 15.2809 13.7983C14.4139 14.4574 13.3593 14.8394 12.2613 14.8919C11.1633 14.9444 10.0755 14.6649 9.14658 14.0917C8.21765 13.5184 7.49295 12.6794 7.07157 11.6893L7.05557 11.6919L6.8189 11.4117L6.81823 11.4104L6.8169 11.4091L6.81357 11.4046L6.80223 11.3916C6.74523 11.3223 6.69032 11.2514 6.63757 11.179C6.49394 10.9841 6.35828 10.7837 6.2309 10.5783C5.91757 10.0725 5.53957 9.35224 5.29757 8.51167C5.05623 7.67111 4.94557 6.68558 5.1989 5.66885C5.44557 4.67942 6.02757 3.70559 7.08157 2.83577L7.09957 2.75906ZM8.21957 10.9749C8.50871 11.7857 9.06394 12.4809 9.79928 12.9529C10.5346 13.4248 11.409 13.6472 12.2871 13.5855C13.1651 13.5238 13.9978 13.1815 14.6562 12.6117C15.3146 12.0418 15.7619 11.2762 15.9289 10.4333L16.0042 10.458C16.0013 10.4213 16 10.3844 16.0002 10.3475C16.0002 9.27163 15.8469 8.52078 15.7042 8.05271C15.6762 7.96165 15.6453 7.87146 15.6116 7.78228L15.5842 7.78358H15.5576C15.0591 7.79401 14.5607 7.757 14.0696 7.67306C12.9249 7.48454 11.3749 7.01388 9.54957 5.92368C9.50957 6.01079 9.46957 6.10896 9.42957 6.21817C9.2989 6.57897 9.19157 7.00737 9.0989 7.45983C9.0169 7.85834 8.94957 8.25944 8.88557 8.63519L8.8609 8.78341C8.79223 9.18646 8.72357 9.58237 8.64357 9.86905C8.50357 10.367 8.3609 10.7207 8.21957 10.9742M7.28624 9.76309C6.98543 9.25893 6.749 8.72078 6.58223 8.16063C6.3829 7.46764 6.30957 6.71744 6.4949 5.97569C6.6749 5.25409 7.11023 4.49544 8.00557 3.77645C8.1669 3.66983 8.24023 3.52681 8.26023 3.48846V3.48781C8.29493 3.41739 8.32304 3.34407 8.34424 3.26873C8.36557 3.19462 8.3889 3.0932 8.4109 3.00219L8.43423 2.90013C8.49757 2.63814 8.57957 2.35276 8.72624 2.09207C8.8689 1.83984 9.06423 1.62401 9.3549 1.48294C9.6469 1.34057 10.0989 1.24306 10.8069 1.33537C11.7756 1.46084 13.5976 1.76183 15.1616 2.53803C16.7149 3.30838 17.8896 4.47464 17.8896 6.32413C17.8896 7.17575 17.5962 8.14438 17.2429 8.90823C17.1762 8.41026 17.0802 8.00331 16.9816 7.68086C16.9121 7.45064 16.8263 7.22539 16.7249 7.00672C16.686 6.92597 16.6438 6.84681 16.5982 6.76944L16.5869 6.75189L16.5829 6.74539L16.5809 6.74214L16.5796 6.74019L16.3329 6.36704L15.8916 6.4535L15.8822 6.45545L15.8176 6.4639C15.7184 6.47476 15.6187 6.48127 15.5189 6.48341C15.1079 6.4911 14.697 6.45975 14.2922 6.38979C13.2169 6.21297 11.6369 5.73126 9.71757 4.48504L9.2509 4.18145L8.8649 4.578C8.5469 4.90435 8.3309 5.34965 8.1729 5.78326C8.01157 6.22857 7.88957 6.72589 7.79157 7.20305C7.71027 7.60911 7.63648 8.01656 7.57023 8.42521L7.5449 8.57083C7.47357 8.99404 7.41557 9.31713 7.3569 9.52646C7.3329 9.6127 7.30935 9.69158 7.28624 9.76309Z" fill="#A6A6A6"/>
<path fill-rule="evenodd" clip-rule="evenodd" d="M7.94267 15.4546C7.80133 15.1802 7.62733 14.8415 7.33333 14.9072C3.73067 15.7068 0 18.0153 0 20.47V23.9999H24V20.47C24 18.5366 21.6853 16.6936 18.942 15.6073L18.9387 15.6008L18.9293 15.5833L18.9073 15.5937C18.1787 15.3076 17.42 15.0736 16.6667 14.9072C16.3313 14.8324 15.9847 15.2823 15.8333 15.5638H8L7.94267 15.4546ZM16.9353 16.3127C17.2269 16.3916 17.516 16.4798 17.8027 16.5773C17.8107 16.7996 17.7933 17.0622 17.756 17.3301C17.7182 17.6074 17.6576 17.8813 17.5747 18.1492H16.6667C16.5429 18.1492 16.4216 18.1829 16.3163 18.2464C16.2111 18.3099 16.126 18.4007 16.0707 18.5087L15.404 19.8088C15.3576 19.899 15.3334 19.9985 15.3333 20.0994V21.3996C15.3333 21.572 15.4036 21.7374 15.5286 21.8593C15.6536 21.9812 15.8232 22.0497 16 22.0497H17.3333V20.7495H16.6667V20.2529L17.0787 19.4493H18.9213L19.3333 20.2529V20.7495H18.6667V22.0497H20C20.1768 22.0497 20.3464 21.9812 20.4714 21.8593C20.5964 21.7374 20.6667 21.572 20.6667 21.3996V20.0994C20.6666 19.9985 20.6424 19.899 20.596 19.8088L19.9293 18.5087C19.874 18.4007 19.7889 18.3099 19.6837 18.2464C19.5784 18.1829 19.4571 18.1492 19.3333 18.1492H18.956C19.0375 17.805 19.0928 17.4554 19.1213 17.1032C19.7713 17.4029 20.3753 17.7468 20.8987 18.1186C22.18 19.03 22.6667 19.883 22.6667 20.47V22.6998H1.33333V20.47C1.33333 19.883 1.82 19.03 3.10133 18.1186C3.74533 17.6603 4.514 17.2456 5.338 16.9023C5.36102 17.4203 5.44627 17.9339 5.592 18.4326L5.59733 18.4508C5.19878 18.6967 4.90214 19.072 4.75982 19.5104C4.61751 19.9489 4.63866 20.4223 4.81955 20.847C5.00044 21.2717 5.32942 21.6204 5.7484 21.8315C6.16738 22.0427 6.6494 22.1026 7.10931 22.0008C7.56923 21.899 7.97746 21.642 8.2619 21.2752C8.54634 20.9084 8.68869 20.4553 8.6638 19.9961C8.63892 19.5368 8.44841 19.1009 8.12591 18.7654C7.80342 18.4298 7.36969 18.2162 6.90133 18.1622L6.872 18.0686C6.80152 17.8264 6.74916 17.5796 6.71533 17.3301C6.67796 17.078 6.66235 16.8234 6.66867 16.5688C6.67089 16.5142 6.67422 16.4657 6.67867 16.4232C6.75867 16.3989 6.83867 16.3757 6.91867 16.3536L7.19533 16.8646H16.638L16.9353 16.3127ZM6.66667 20.7599C7.02533 20.7599 7.33333 20.4739 7.33333 20.1001C7.33333 19.7269 7.02533 19.4402 6.66667 19.4402C6.308 19.4402 6 19.7263 6 20.1001C6 20.4732 6.308 20.7599 6.66667 20.7599Z" fill="#A6A6A6"/>
</svg>
