<svg width="21" height="22" viewBox="0 0 21 22" fill="none" xmlns="http://www.w3.org/2000/svg">
<path d="M15 1V4.7595C18.656 6.8565 20.307 9.64683 19.953 13.1305C19.599 16.6142 17.948 19.2373 15 21M5.386 1C4.317 1.185 3.54767 1.81133 3.078 2.879C2.373 4.48 1 9.982 1 10.863C1 11.744 2.784 14.1175 7.026 17.718C8.9915 19.386 10.1535 19.301 10.7825 18.182C11.4115 17.063 10.579 16.345 9.525 15.5185C7.5935 14.004 5.051 11.6075 5.051 10.5555C5.051 9.85417 5.70933 7.71683 7.026 4.1435" stroke="#A6A6A6" stroke-width="2" stroke-linecap="round" stroke-linejoin="round"/>
<path d="M2.60059 13.4697C2.8654 16.0032 3.33357 18.5113 4.00059 20.9697M15.0001 8.97168C15.7734 9.48568 16.2734 10.1543 16.5001 10.9777C16.7268 11.8017 16.7928 12.5527 16.6981 13.2307" stroke="#A6A6A6" stroke-width="2" stroke-linecap="round"/>
</svg>
