<svg width="15" height="27" viewBox="0 0 15 27" fill="none" xmlns="http://www.w3.org/2000/svg">
<path d="M4.56688 23.9768C4.56688 25.3144 5.65122 26.3987 6.98882 26.3987C8.32642 26.3987 9.41076 25.3144 9.41076 23.9768V16.7418C9.41076 15.5492 10.3775 14.5824 11.5701 14.5824C12.6526 14.5824 13.5678 13.7809 13.7105 12.7079L13.745 12.4491C13.9186 11.1445 12.9035 9.98541 11.5874 9.98541C10.3853 9.98541 9.41076 9.01091 9.41076 7.8088V7.03943C9.41076 5.71212 9.791 4.80566 11.7418 4.80566H12.0581C13.2621 4.80566 14.2381 3.82964 14.2381 2.62565C14.2381 1.51636 13.4042 0.588071 12.2961 0.538491C11.7895 0.515828 11.2187 0.5 10.6176 0.5C7.01362 0.5 4.56688 2.65283 4.56688 6.5862V7.95197C4.56688 9.07501 3.65648 9.98541 2.53344 9.98541C1.4104 9.98541 0.5 10.8958 0.5 12.0188V12.549C0.5 13.672 1.4104 14.5824 2.53344 14.5824C3.65648 14.5824 4.56688 15.4928 4.56688 16.6159V23.9768Z" fill="#505CE3" stroke="#3744D7"/>
</svg>
