<svg width="78" height="78" viewBox="0 0 78 78" fill="none" xmlns="http://www.w3.org/2000/svg">
<path fill-rule="evenodd" clip-rule="evenodd" d="M20.3125 23.6925V22.75C20.3125 16.8708 22.087 12.1062 25.519 8.82375C28.9315 5.56075 33.6635 4.0625 39 4.0625C44.3365 4.0625 49.0685 5.56075 52.481 8.82375C55.913 12.1062 57.6875 16.8708 57.6875 22.75V23.6925C63.8105 25.9545 68.25 32.084 68.25 39.325C68.25 51.7985 58.604 58.994 50.388 65.1203C49.5343 65.7573 48.7002 66.3834 47.8855 66.9987C44.85 69.316 41.925 71.5 39 71.5C36.075 71.5 33.15 69.316 30.1145 66.9987C29.2838 66.368 28.4496 65.7418 27.612 65.1203C19.396 58.994 9.75 51.7952 9.75 39.3218C9.75 32.0872 14.1895 25.961 20.3125 23.6925ZM25.1875 22.75C25.1875 17.8588 26.6402 14.4983 28.8892 12.35C31.1545 10.179 34.5443 8.9375 39 8.9375C43.4525 8.9375 46.8455 10.179 49.1107 12.35C51.3597 14.4983 52.8125 17.8588 52.8125 22.75C48.3763 22.646 43.5175 24.4822 39 29.0257C34.4825 24.4822 29.6238 22.6493 25.1875 22.75ZM39 36.5625C39.6465 36.5625 40.2665 36.8193 40.7236 37.2764C41.1807 37.7335 41.4375 38.3535 41.4375 39V47.125C41.4375 47.7715 41.1807 48.3915 40.7236 48.8486C40.2665 49.3057 39.6465 49.5625 39 49.5625C38.3535 49.5625 37.7335 49.3057 37.2764 48.8486C36.8193 48.3915 36.5625 47.7715 36.5625 47.125V39C36.5625 38.3535 36.8193 37.7335 37.2764 37.2764C37.7335 36.8193 38.3535 36.5625 39 36.5625Z" fill="#B34962"/>
</svg>
