<svg width="22" height="22" viewBox="0 0 22 22" fill="none" xmlns="http://www.w3.org/2000/svg">
<path d="M10.9213 16.5C11.2412 16.5 11.5117 16.3891 11.7329 16.1673C11.9541 15.9455 12.0644 15.6744 12.0637 15.3542C12.0631 15.034 11.9529 14.7627 11.7329 14.5402C11.5129 14.3178 11.2424 14.2072 10.9213 14.2084C10.6002 14.2096 10.33 14.3205 10.1107 14.5411C9.89132 14.7617 9.78073 15.0328 9.7789 15.3542C9.77707 15.6757 9.88766 15.947 10.1107 16.1682C10.3337 16.3894 10.6039 16.5 10.9213 16.5ZM10.0988 12.9709H11.7896C11.7896 12.4667 11.8468 12.0695 11.9614 11.7792C12.0759 11.4889 12.3995 11.0917 12.932 10.5875C13.328 10.1903 13.6403 9.81205 13.8688 9.45271C14.0973 9.09338 14.2115 8.66193 14.2115 8.15838C14.2115 7.30282 13.8992 6.64588 13.2747 6.18755C12.6502 5.72921 11.9114 5.50005 11.0584 5.50005C10.1902 5.50005 9.48583 5.72921 8.94539 6.18755C8.40495 6.64588 8.0278 7.19588 7.81394 7.83755L9.32193 8.43338C9.39809 8.15838 9.56961 7.86046 9.83648 7.53963C10.1033 7.2188 10.5107 7.05838 11.0584 7.05838C11.5459 7.05838 11.9114 7.19221 12.1551 7.45988C12.3989 7.72755 12.5207 8.02149 12.5207 8.34171C12.5207 8.64727 12.4293 8.93388 12.2465 9.20155C12.0637 9.46921 11.8353 9.71732 11.5611 9.94588C10.8909 10.5417 10.4796 10.9924 10.3273 11.298C10.1749 11.6035 10.0988 12.1612 10.0988 12.9709ZM10.967 20.1667C9.70274 20.1667 8.51462 19.9262 7.40266 19.4453C6.2907 18.9644 5.32345 18.3111 4.50091 17.4855C3.67836 16.6599 3.02733 15.6897 2.54782 14.575C2.06831 13.4604 1.82825 12.2687 1.82764 11C1.82703 9.73138 2.06709 8.53971 2.54782 7.42505C3.02855 6.31038 3.67958 5.34024 4.50091 4.51463C5.32223 3.68902 6.28949 3.03605 7.40266 2.55571C8.51584 2.07538 9.70396 1.8346 10.967 1.83338C12.2301 1.83216 13.4182 2.07293 14.5314 2.55571C15.6446 3.03849 16.6118 3.69146 17.4331 4.51463C18.2545 5.3378 18.9058 6.30793 19.3871 7.42505C19.8685 8.54216 20.1082 9.73382 20.1064 11C20.1046 12.2663 19.8645 13.4579 19.3862 14.575C18.9079 15.6922 18.2569 16.6623 17.4331 17.4855C16.6094 18.3086 15.6421 18.9619 14.5314 19.4453C13.4206 19.9287 12.2325 20.1692 10.967 20.1667ZM10.967 18.3334C13.0082 18.3334 14.737 17.623 16.1536 16.2021C17.5702 14.7813 18.2785 13.0473 18.2785 11C18.2785 8.95282 17.5702 7.2188 16.1536 5.79796C14.737 4.37713 13.0082 3.66671 10.967 3.66671C8.92589 3.66671 7.19703 4.37713 5.78042 5.79796C4.36382 7.2188 3.65551 8.95282 3.65551 11C3.65551 13.0473 4.36382 14.7813 5.78042 16.2021C7.19703 17.623 8.92589 18.3334 10.967 18.3334Z" fill="#B34962"/>
</svg>
