<svg width="25" height="25" viewBox="0 0 25 25" fill="none" xmlns="http://www.w3.org/2000/svg">
<path d="M12.0209 22.0385C10.6518 22.0385 9.35791 21.7754 8.13912 21.2491C6.92033 20.7229 5.85614 20.0049 4.94655 19.0954C4.03697 18.1858 3.31905 17.1216 2.7928 15.9028C2.26654 14.684 2.00342 13.3901 2.00342 12.021C2.00342 10.6353 2.26654 9.33733 2.7928 8.12722C3.31905 6.91711 4.03697 5.85693 4.94655 4.94667C5.85614 4.03642 6.92033 3.3185 8.13912 2.79292C9.35791 2.26733 10.6518 2.00421 12.0209 2.00354C13.4066 2.00354 14.7049 2.26667 15.9157 2.79292C17.1265 3.31917 18.1863 4.03709 19.0952 4.94667C20.0042 5.85626 20.7221 6.91644 21.249 8.12722C21.7759 9.338 22.039 10.6359 22.0384 12.021C22.0384 13.3901 21.7752 14.684 21.249 15.9028C20.7227 17.1216 20.0048 18.1861 19.0952 19.0964C18.1856 20.0066 17.1255 20.7245 15.9147 21.2501C14.7039 21.7757 13.406 22.0385 12.0209 22.0385ZM12.0209 19.9849C12.455 19.3839 12.8306 18.7578 13.1479 18.1066C13.4651 17.4555 13.7239 16.7626 13.9242 16.028H10.1176C10.3179 16.7626 10.5767 17.4555 10.8939 18.1066C11.2111 18.7578 11.5868 19.3839 12.0209 19.9849ZM9.41635 19.5842C9.11582 19.0332 8.85303 18.4613 8.62797 17.8682C8.40291 17.2752 8.21492 16.6618 8.06399 16.028H5.10883C5.59301 16.8628 6.1984 17.5891 6.925 18.2068C7.6516 18.8245 8.48205 19.2837 9.41635 19.5842ZM14.6254 19.5842C15.5604 19.2837 16.3912 18.8245 17.1178 18.2068C17.8444 17.5891 18.4494 16.8628 18.933 16.028H15.9778C15.8275 16.6624 15.6399 17.2762 15.4148 17.8692C15.1898 18.4622 14.9266 19.0339 14.6254 19.5842ZM4.25735 14.0245H7.66329C7.6132 13.6906 7.57581 13.361 7.5511 13.0358C7.52639 12.7106 7.5137 12.3723 7.51303 12.021C7.51236 11.6697 7.52505 11.3318 7.5511 11.0072C7.57714 10.6827 7.61454 10.3528 7.66329 10.0175H4.25735C4.17387 10.3514 4.11143 10.6813 4.07002 11.0072C4.02862 11.3331 4.00758 11.6711 4.00691 12.021C4.00625 12.371 4.02728 12.7092 4.07002 13.0358C4.11276 13.3624 4.17521 13.6919 4.25735 14.0245ZM9.66679 14.0245H14.375C14.4251 13.6906 14.4628 13.361 14.4882 13.0358C14.5136 12.7106 14.5259 12.3723 14.5253 12.021C14.5246 11.6697 14.5119 11.3318 14.4872 11.0072C14.4625 10.6827 14.4251 10.3528 14.375 10.0175H9.66679C9.6167 10.3514 9.5793 10.6813 9.55459 11.0072C9.52988 11.3331 9.51719 11.6711 9.51652 12.021C9.51586 12.371 9.52855 12.7092 9.55459 13.0358C9.58064 13.3624 9.61803 13.6919 9.66679 14.0245ZM16.3785 14.0245H19.7844C19.8679 13.6906 19.9307 13.361 19.9728 13.0358C20.0148 12.7106 20.0355 12.3723 20.0349 12.021C20.0342 11.6697 20.0135 11.3318 19.9728 11.0072C19.932 10.6827 19.8693 10.3528 19.7844 10.0175H16.3785C16.4286 10.3514 16.4663 10.6813 16.4917 11.0072C16.5171 11.3331 16.5294 11.6711 16.5288 12.021C16.5281 12.371 16.5154 12.7092 16.4907 13.0358C16.466 13.3624 16.4286 13.6919 16.3785 14.0245ZM15.9778 8.01402H18.933C18.4488 7.17924 17.8437 6.45297 17.1178 5.83522C16.3919 5.21748 15.5611 4.75835 14.6254 4.45782C14.926 5.00878 15.1891 5.58078 15.4148 6.17381C15.6405 6.76685 15.8282 7.38025 15.9778 8.01402ZM10.1176 8.01402H13.9242C13.7239 7.27941 13.4651 6.58653 13.1479 5.9354C12.8306 5.28426 12.455 4.65817 12.0209 4.05712C11.5868 4.65817 11.2111 5.28426 10.8939 5.9354C10.5767 6.58653 10.3179 7.27941 10.1176 8.01402ZM5.10883 8.01402H8.06399C8.21425 7.37958 8.40225 6.76585 8.62797 6.17281C8.8537 5.57978 9.11649 5.00811 9.41635 4.45782C8.48138 4.75835 7.6506 5.21748 6.924 5.83522C6.1974 6.45297 5.59235 7.17924 5.10883 8.01402Z" fill="#B34962"/>
</svg>
