<svg width="13" height="13" viewBox="0 0 13 13" fill="none" xmlns="http://www.w3.org/2000/svg">
<g clip-path="url(#clip0_1117_222)">
<path d="M1.61127 5.49598L2.01244 5.46161C2.0032 5.35845 1.95457 5.26282 1.87666 5.19458C1.79875 5.12633 1.69754 5.09073 1.59407 5.09515C1.49059 5.09958 1.3928 5.14369 1.32099 5.21833C1.24919 5.29297 1.2089 5.39241 1.2085 5.49598H1.61127ZM10.8676 6.475L10.4885 8.66611L11.2828 8.80359L11.6614 6.61248L10.8676 6.475ZM7.11322 11.412H4.61653V12.2175H7.11322V11.412ZM4.12729 10.9625L3.69122 5.91809L2.88835 5.98737L3.32496 11.0318L4.12729 10.9625ZM10.4885 8.66611C10.2162 10.2396 8.79737 11.412 7.11322 11.412V12.2175C9.16792 12.2175 10.9401 10.7842 11.2828 8.80359L10.4885 8.66611ZM7.11859 2.73883L6.76253 4.91114L7.55735 5.04111L7.9134 2.86933L7.11859 2.73883ZM3.86038 5.50242L4.63318 4.8365L4.10688 4.22642L3.33516 4.89235L3.86038 5.50242ZM6.03861 2.67009L6.29424 1.68516L5.51446 1.48324L5.25883 2.46763L6.03861 2.67009ZM6.67983 1.49183L6.7577 1.51707L7.0042 0.750181L6.92633 0.724941L6.67983 1.49183ZM5.6514 3.66039C5.81906 3.3467 5.94903 3.0143 6.03861 2.67009L5.25883 2.46763C5.18483 2.75026 5.07813 3.02331 4.9409 3.28124L5.6514 3.66039ZM6.7577 1.51707C6.83421 1.54052 6.90361 1.5828 6.95953 1.64003C7.01545 1.69727 7.05611 1.76763 7.07777 1.84466L7.85755 1.64274C7.80229 1.43399 7.69504 1.24265 7.54582 1.08657C7.39659 0.930487 7.21026 0.814758 7.0042 0.750181L6.7577 1.51707ZM6.29424 1.68516C6.30511 1.64656 6.32416 1.61075 6.35011 1.58017C6.37606 1.54958 6.40829 1.52495 6.44461 1.50794L6.095 0.782404C5.80929 0.919885 5.59448 1.17444 5.51446 1.48324L6.29424 1.68516ZM6.44461 1.50794C6.51816 1.47305 6.6022 1.46729 6.67983 1.49183L6.92633 0.724941C6.65204 0.637259 6.35461 0.657818 6.095 0.782404L6.44461 1.50794ZM7.60138 5.89876H10.3832V5.0932H7.60138V5.89876ZM2.53444 11.4958L2.01244 5.46161L1.21011 5.53089L1.73103 11.565L2.53444 11.4958ZM2.01405 11.5532V5.49598H1.2085V11.5532H2.01405ZM1.73103 11.565C1.72939 11.5455 1.73237 11.5259 1.73873 11.5073C1.74509 11.4888 1.75524 11.4718 1.76852 11.4574C1.7818 11.443 1.79793 11.4316 1.81589 11.4237C1.83384 11.4159 1.85323 11.4119 1.87281 11.412V12.2175C2.2627 12.2175 2.56774 11.8835 2.53444 11.4958L1.73103 11.565ZM7.9134 2.86933C7.98091 2.46107 7.96188 2.04317 7.85755 1.64274L7.07777 1.8452C7.15394 2.13691 7.16784 2.44139 7.11859 2.73883L7.9134 2.86933ZM4.61653 11.412C4.49356 11.4118 4.37512 11.3655 4.28456 11.2823C4.19401 11.1991 4.1379 11.085 4.12729 10.9625L3.32496 11.0318C3.3529 11.3551 3.50104 11.6563 3.74015 11.8758C3.97925 12.0953 4.29194 12.2173 4.61653 12.2175V11.412ZM4.63318 4.8365C4.99837 4.52179 5.39148 4.14748 5.65194 3.66039L4.9409 3.28124C4.75509 3.62977 4.45918 3.92353 4.10688 4.22642L4.63318 4.8365ZM11.6614 6.61248C11.6937 6.42612 11.6849 6.23494 11.6356 6.05235C11.5863 5.86975 11.4976 5.70014 11.3759 5.5554C11.2541 5.41067 11.1022 5.2943 10.9307 5.21446C10.7592 5.13462 10.5724 5.09323 10.3832 5.0932V5.89876C10.6877 5.89876 10.9203 6.17372 10.8676 6.475L11.6614 6.61248ZM1.87281 11.412C1.95122 11.412 2.01405 11.4753 2.01405 11.5532H1.2085C1.2085 11.9195 1.50548 12.2175 1.87281 12.2175V11.412ZM6.76253 4.91114C6.74251 5.03283 6.7492 5.15741 6.78214 5.27624C6.81508 5.39508 6.87348 5.50533 6.95329 5.59934C7.0331 5.69335 7.1324 5.76887 7.24431 5.82067C7.35623 5.87246 7.47807 5.89876 7.60138 5.89876V5.0932C7.59483 5.09323 7.58835 5.09235 7.58241 5.08959C7.57647 5.08683 7.57121 5.08279 7.567 5.07777C7.5628 5.07274 7.55975 5.06685 7.55808 5.06051C7.55641 5.05418 7.55616 5.04755 7.55735 5.04111L6.76253 4.91114ZM3.69122 5.91809C3.68467 5.84033 3.69609 5.76212 3.72559 5.68987C3.75509 5.61762 3.80128 5.55338 3.86038 5.50242L3.33409 4.89181C3.17843 5.02614 3.05686 5.19549 2.97937 5.38594C2.90188 5.5764 2.87069 5.78252 2.88835 5.98737L3.69122 5.91809Z" fill="#A6A6A6"/>
</g>
<defs>
<clipPath id="clip0_1117_222">
<rect width="12.8889" height="12.8889" fill="white"/>
</clipPath>
</defs>
</svg>
