<svg width="20" height="20" viewBox="0 0 20 20" fill="none" xmlns="http://www.w3.org/2000/svg">
<path d="M0 1.8C0 1.32261 0.189642 0.864773 0.527208 0.527208C0.864773 0.189642 1.32261 0 1.8 0H3C3.47739 0 3.93523 0.189642 4.27279 0.527208C4.61036 0.864773 4.8 1.32261 4.8 1.8V3C4.8 3.47739 4.61036 3.93523 4.27279 4.27279C3.93523 4.61036 3.47739 4.8 3 4.8H1.8C1.32261 4.8 0.864773 4.61036 0.527208 4.27279C0.189642 3.93523 0 3.47739 0 3V1.8ZM1.8 1.2C1.64087 1.2 1.48826 1.26321 1.37574 1.37574C1.26321 1.48826 1.2 1.64087 1.2 1.8V3C1.2 3.15913 1.26321 3.31174 1.37574 3.42426C1.48826 3.53679 1.64087 3.6 1.8 3.6H3C3.15913 3.6 3.31174 3.53679 3.42426 3.42426C3.53679 3.31174 3.6 3.15913 3.6 3V1.8C3.6 1.64087 3.53679 1.48826 3.42426 1.37574C3.31174 1.26321 3.15913 1.2 3 1.2H1.8ZM0 9C0 8.52261 0.189642 8.06477 0.527208 7.72721C0.864773 7.38964 1.32261 7.2 1.8 7.2H3C3.47739 7.2 3.93523 7.38964 4.27279 7.72721C4.61036 8.06477 4.8 8.52261 4.8 9V10.2C4.8 10.6774 4.61036 11.1352 4.27279 11.4728C3.93523 11.8104 3.47739 12 3 12H1.8C1.32261 12 0.864773 11.8104 0.527208 11.4728C0.189642 11.1352 0 10.6774 0 10.2V9ZM1.8 8.4C1.64087 8.4 1.48826 8.46321 1.37574 8.57574C1.26321 8.68826 1.2 8.84087 1.2 9V10.2C1.2 10.3591 1.26321 10.5117 1.37574 10.6243C1.48826 10.7368 1.64087 10.8 1.8 10.8H3C3.15913 10.8 3.31174 10.7368 3.42426 10.6243C3.53679 10.5117 3.6 10.3591 3.6 10.2V9C3.6 8.84087 3.53679 8.68826 3.42426 8.57574C3.31174 8.46321 3.15913 8.4 3 8.4H1.8ZM0 16.2C0 15.7226 0.189642 15.2648 0.527208 14.9272C0.864773 14.5896 1.32261 14.4 1.8 14.4H3C3.47739 14.4 3.93523 14.5896 4.27279 14.9272C4.61036 15.2648 4.8 15.7226 4.8 16.2V17.4C4.8 17.8774 4.61036 18.3352 4.27279 18.6728C3.93523 19.0104 3.47739 19.2 3 19.2H1.8C1.32261 19.2 0.864773 19.0104 0.527208 18.6728C0.189642 18.3352 0 17.8774 0 17.4V16.2ZM1.8 15.6C1.64087 15.6 1.48826 15.6632 1.37574 15.7757C1.26321 15.8883 1.2 16.0409 1.2 16.2V17.4C1.2 17.5591 1.26321 17.7117 1.37574 17.8243C1.48826 17.9368 1.64087 18 1.8 18H3C3.15913 18 3.31174 17.9368 3.42426 17.8243C3.53679 17.7117 3.6 17.5591 3.6 17.4V16.2C3.6 16.0409 3.53679 15.8883 3.42426 15.7757C3.31174 15.6632 3.15913 15.6 3 15.6H1.8ZM7.2 3C7.2 2.84087 7.26321 2.68826 7.37574 2.57574C7.48826 2.46321 7.64087 2.4 7.8 2.4H18.6C18.7591 2.4 18.9117 2.46321 19.0243 2.57574C19.1368 2.68826 19.2 2.84087 19.2 3C19.2 3.15913 19.1368 3.31174 19.0243 3.42426C18.9117 3.53679 18.7591 3.6 18.6 3.6H7.8C7.64087 3.6 7.48826 3.53679 7.37574 3.42426C7.26321 3.31174 7.2 3.15913 7.2 3ZM7.2 10.2C7.2 10.0409 7.26321 9.88826 7.37574 9.77574C7.48826 9.66321 7.64087 9.6 7.8 9.6H18.6C18.7591 9.6 18.9117 9.66321 19.0243 9.77574C19.1368 9.88826 19.2 10.0409 19.2 10.2C19.2 10.3591 19.1368 10.5117 19.0243 10.6243C18.9117 10.7368 18.7591 10.8 18.6 10.8H7.8C7.64087 10.8 7.48826 10.7368 7.37574 10.6243C7.26321 10.5117 7.2 10.3591 7.2 10.2ZM7.2 17.4C7.2 17.2409 7.26321 17.0883 7.37574 16.9757C7.48826 16.8632 7.64087 16.8 7.8 16.8H18.6C18.7591 16.8 18.9117 16.8632 19.0243 16.9757C19.1368 17.0883 19.2 17.2409 19.2 17.4C19.2 17.5591 19.1368 17.7117 19.0243 17.8243C18.9117 17.9368 18.7591 18 18.6 18H7.8C7.64087 18 7.48826 17.9368 7.37574 17.8243C7.26321 17.7117 7.2 17.5591 7.2 17.4Z" fill="black" fill-opacity="0.35"/>
</svg>
