<svg width="25" height="24" viewBox="0 0 25 24" fill="none" xmlns="http://www.w3.org/2000/svg">
<path d="M10.2798 14.405C10.2799 14.0992 10.3644 13.799 10.5242 13.5358C10.6841 13.2726 10.9136 13.0559 11.1887 12.9085C11.4639 12.7611 11.7746 12.6882 12.0885 12.6976C12.4024 12.7069 12.708 12.7981 12.9734 12.9616C13.2388 13.1252 13.4543 13.355 13.5973 13.6273C13.7404 13.8995 13.8058 14.2042 13.7868 14.5094C13.7678 14.8147 13.665 15.1094 13.4891 15.3627C13.3133 15.6161 13.0708 15.8189 12.7871 15.95V16.6024C12.7871 16.7966 12.7078 16.9829 12.5668 17.1203C12.4257 17.2577 12.2344 17.3348 12.0349 17.3348C11.8354 17.3348 11.6441 17.2577 11.503 17.1203C11.362 16.9829 11.2827 16.7966 11.2827 16.6024V15.95C10.9825 15.8113 10.7289 15.5925 10.5513 15.319C10.3738 15.0455 10.2796 14.7286 10.2798 14.405Z" fill="#B34962"/>
<path d="M7.52196 6.83614C7.52196 5.67059 7.99745 4.55277 8.84383 3.72859C9.69021 2.90442 10.8381 2.44141 12.0351 2.44141C13.2321 2.44141 14.38 2.90442 15.2264 3.72859C16.0728 4.55277 16.5483 5.67059 16.5483 6.83614V9.27766L16.5433 9.34798C16.9535 9.39681 17.3105 9.48666 17.6405 9.65073C18.301 9.97822 18.8382 10.5009 19.1749 11.144C19.3805 11.5375 19.4708 11.9711 19.5139 12.4897C19.557 12.9976 19.557 13.6304 19.557 14.4322V15.8424C19.557 16.6452 19.557 17.2761 19.5139 17.7859C19.4708 18.3035 19.3805 18.7371 19.1749 19.1307C18.8383 19.7741 18.3012 20.2971 17.6405 20.6249C17.2363 20.8251 16.791 20.913 16.2584 20.955C15.7369 20.997 15.088 20.997 14.2636 20.997H9.80662C8.98321 20.997 8.33432 20.997 7.8108 20.955C7.27925 20.913 6.83395 20.8251 6.42977 20.6249C5.76904 20.2971 5.23188 19.7741 4.8953 19.1307C4.6897 18.7371 4.59944 18.3035 4.55631 17.7849C4.51318 17.2771 4.51318 16.6452 4.51318 15.8424V14.4322C4.51318 13.6294 4.51318 12.9976 4.55631 12.4888C4.59944 11.9711 4.6897 11.5375 4.8953 11.144C5.23188 10.5006 5.76904 9.9775 6.42977 9.64975C6.76074 9.48666 7.11677 9.39779 7.52697 9.347L7.52196 9.27766V6.83614ZM15.5453 9.27766V6.83614C15.5453 6.38727 15.4546 5.94279 15.2781 5.52808C15.1017 5.11337 14.8432 4.73656 14.5172 4.41916C14.1913 4.10176 13.8043 3.84998 13.3784 3.6782C12.9525 3.50643 12.4961 3.41801 12.0351 3.41801C11.5741 3.41801 11.1177 3.50643 10.6918 3.6782C10.2659 3.84998 9.87896 4.10176 9.553 4.41916C9.22705 4.73656 8.96848 5.11337 8.79208 5.52808C8.61567 5.94279 8.52488 6.38727 8.52488 6.83614V9.28645C8.89797 9.27766 9.3222 9.27766 9.80662 9.27766H14.2636C14.748 9.27766 15.1723 9.27766 15.5453 9.28645V9.27766ZM7.89304 10.2933C7.42267 10.3304 7.1248 10.4008 6.8851 10.5209C6.41323 10.7547 6.0295 11.1281 5.7889 11.5873C5.66755 11.8208 5.59434 12.1108 5.55522 12.5688C5.51611 13.0337 5.51611 13.6255 5.51611 14.4537V15.8209C5.51611 16.6491 5.51611 17.2409 5.55622 17.7058C5.59434 18.1638 5.66655 18.4539 5.7889 18.6873C6.0295 19.1466 6.41323 19.5199 6.8851 19.7537C7.1248 19.8729 7.42267 19.9442 7.89304 19.9823C8.36943 20.0204 8.9782 20.0204 9.82868 20.0204H14.2415C15.092 20.0204 15.7008 20.0204 16.1772 19.9813C16.6476 19.9442 16.9454 19.8739 17.1851 19.7537C17.6566 19.5197 18.04 19.1464 18.2803 18.6873C18.4027 18.4539 18.4759 18.1638 18.515 17.7058C18.5541 17.2409 18.5541 16.6491 18.5541 15.8209V14.4537C18.5541 13.6255 18.5541 13.0327 18.514 12.5688C18.4759 12.1108 18.4037 11.8208 18.2803 11.5873C18.04 11.1282 17.6566 10.7549 17.1851 10.5209C16.9454 10.4017 16.6476 10.3304 16.1772 10.2924C15.7008 10.2543 15.092 10.2543 14.2415 10.2543H9.82868C8.9782 10.2543 8.36943 10.2543 7.89304 10.2933Z" fill="#B34962"/>
</svg>
