<svg width="24" height="24" viewBox="0 0 24 24" fill="none" xmlns="http://www.w3.org/2000/svg">
<path d="M8.8002 11.2C7.73933 11.2 6.72191 10.7786 5.97177 10.0284C5.22162 9.27829 4.8002 8.26087 4.8002 7.20001V4.00001C4.8002 3.78783 4.88448 3.58435 5.03451 3.43432C5.18454 3.28429 5.38802 3.20001 5.6002 3.20001H6.4002C6.61237 3.20001 6.81585 3.11572 6.96588 2.96569C7.11591 2.81566 7.2002 2.61218 7.2002 2.40001C7.2002 2.18783 7.11591 1.98435 6.96588 1.83432C6.81585 1.68429 6.61237 1.60001 6.4002 1.60001H5.6002C4.96368 1.60001 4.35323 1.85286 3.90314 2.30295C3.45305 2.75304 3.2002 3.36349 3.2002 4.00001V7.20001C3.20122 8.1038 3.42161 8.99383 3.84244 9.79367C4.26326 10.5935 4.87194 11.2793 5.6162 11.792C6.33198 12.4218 6.91237 13.1905 7.32217 14.0513C7.73197 14.9122 7.96264 15.8473 8.0002 16.8C8.0002 18.2852 8.59019 19.7096 9.6404 20.7598C10.6906 21.81 12.115 22.4 13.6002 22.4C15.0854 22.4 16.5098 21.81 17.56 20.7598C18.6102 19.7096 19.2002 18.2852 19.2002 16.8V15.888C19.9543 15.6933 20.6115 15.2302 21.0487 14.5856C21.4858 13.941 21.6728 13.1591 21.5747 12.3864C21.4766 11.6138 21.1 10.9034 20.5156 10.3885C19.9312 9.87368 19.1791 9.58962 18.4002 9.58962C17.6213 9.58962 16.8692 9.87368 16.2848 10.3885C15.7004 10.9034 15.3238 11.6138 15.2257 12.3864C15.1276 13.1591 15.3146 13.941 15.7517 14.5856C16.1888 15.2302 16.8461 15.6933 17.6002 15.888V16.8C17.6002 17.8609 17.1788 18.8783 16.4286 19.6284C15.6785 20.3786 14.6611 20.8 13.6002 20.8C12.5393 20.8 11.5219 20.3786 10.7718 19.6284C10.0216 18.8783 9.6002 17.8609 9.6002 16.8C9.63977 15.8461 9.87294 14.9103 10.2855 14.0494C10.6981 13.1884 11.2815 12.4204 12.0002 11.792C12.7415 11.2775 13.3471 10.591 13.765 9.79122C14.183 8.99149 14.401 8.10238 14.4002 7.20001V4.00001C14.4002 3.36349 14.1473 2.75304 13.6973 2.30295C13.2472 1.85286 12.6367 1.60001 12.0002 1.60001H11.2002C10.988 1.60001 10.7845 1.68429 10.6345 1.83432C10.4845 1.98435 10.4002 2.18783 10.4002 2.40001C10.4002 2.61218 10.4845 2.81566 10.6345 2.96569C10.7845 3.11572 10.988 3.20001 11.2002 3.20001H12.0002C12.2124 3.20001 12.4159 3.28429 12.5659 3.43432C12.7159 3.58435 12.8002 3.78783 12.8002 4.00001V7.20001C12.8002 7.72529 12.6967 8.24544 12.4957 8.73074C12.2947 9.21604 12.0001 9.657 11.6286 10.0284C11.2572 10.3999 10.8162 10.6945 10.3309 10.8955C9.84563 11.0965 9.32548 11.2 8.8002 11.2ZM18.4002 14.4C17.9758 14.4 17.5689 14.2314 17.2688 13.9314C16.9688 13.6313 16.8002 13.2244 16.8002 12.8C16.8002 12.3757 16.9688 11.9687 17.2688 11.6686C17.5689 11.3686 17.9758 11.2 18.4002 11.2C18.8245 11.2 19.2315 11.3686 19.5316 11.6686C19.8316 11.9687 20.0002 12.3757 20.0002 12.8C20.0002 13.2244 19.8316 13.6313 19.5316 13.9314C19.2315 14.2314 18.8245 14.4 18.4002 14.4Z" fill="#B34962"/>
</svg>
