<svg width="24" height="24" viewBox="0 0 24 24" fill="none" xmlns="http://www.w3.org/2000/svg">
<path d="M11.9999 2C12.7955 2 13.5586 2.31607 14.1212 2.87868C14.6838 3.44129 14.9999 4.20435 14.9999 5C14.9999 5.79565 14.6838 6.55871 14.1212 7.12132C13.5586 7.68393 12.7955 8 11.9999 8C11.2042 8 10.4412 7.68393 9.87854 7.12132C9.31593 6.55871 8.99986 5.79565 8.99986 5C8.99986 4.20435 9.31593 3.44129 9.87854 2.87868C10.4412 2.31607 11.2042 2 11.9999 2ZM19.9999 18L17.9999 12.56C17.6499 11.57 17.3399 10.71 15.9999 10C14.6199 9.3 13.6199 9 11.9999 9C10.3699 9 9.37986 9.3 7.99986 10C6.65986 10.71 6.34986 11.57 5.99986 12.56L3.99986 18C3.67986 19.35 6.35986 20.44 8.10986 21.19V19C8.10986 18.05 8.96986 17.38 10.6899 16.97C10.8499 16.93 10.9999 16.91 11.1199 16.89C10.5799 16.07 10.3599 15.34 10.3399 15.28L12.1099 14.68C12.1199 14.7 12.6299 16.27 13.8399 17.06C14.0499 17.13 14.2599 17.21 14.4599 17.3C15.2299 17.64 15.6899 18.08 15.8399 18.61C14.4999 19.14 13.2199 19.41 11.9999 19.41L10.9999 19.31V21.94L11.9999 22C13.3699 22 14.6699 21.72 15.8899 21.19C17.6399 20.44 20.2499 19.13 19.9999 18ZM15.4999 17C15.102 17 14.7205 16.842 14.4392 16.5607C14.1579 16.2794 13.9999 15.8978 13.9999 15.5C13.9999 15.1022 14.1579 14.7206 14.4392 14.4393C14.7205 14.158 15.102 14 15.4999 14C15.8977 14 16.2792 14.158 16.5605 14.4393C16.8418 14.7206 16.9999 15.1022 16.9999 15.5C16.9999 15.8978 16.8418 16.2794 16.5605 16.5607C16.2792 16.842 15.8977 17 15.4999 17Z" fill="url(#paint0_linear_586_627)"/>
<path d="M12 9.25C13.5741 9.25002 14.5356 9.53734 15.8867 10.2227C16.5215 10.5596 16.9009 10.9249 17.1641 11.3145C17.4322 11.7114 17.5873 12.1446 17.7637 12.6436L17.7656 12.6465L19.7568 18.0625C19.7916 18.2354 19.7275 18.4492 19.5146 18.7129C19.3007 18.9778 18.9667 19.254 18.5557 19.5293C17.7354 20.0786 16.6624 20.5865 15.791 20.96L15.79 20.9609C14.6038 21.4762 13.341 21.7477 12.0098 21.749L11.25 21.7041V19.5859L11.9746 19.6592L11.9873 19.6602H12C13.2571 19.6601 14.5684 19.382 15.9316 18.8428L16.1416 18.7598L16.0801 18.542C15.9012 17.9101 15.3634 17.4258 14.5605 17.0713C14.3645 16.9832 14.1603 16.9058 13.957 16.8369C13.4093 16.4726 13.0093 15.929 12.7422 15.458C12.6081 15.2215 12.5095 15.0079 12.4443 14.8525C12.4118 14.775 12.3883 14.7117 12.3721 14.668C12.364 14.6462 12.3569 14.6294 12.3525 14.6172C12.3505 14.6116 12.3491 14.6056 12.3477 14.6016C12.3469 14.5996 12.3458 14.5965 12.3447 14.5938C12.3442 14.5924 12.3429 14.5897 12.3418 14.5869C12.3412 14.5854 12.3377 14.5777 12.333 14.5684L12.2363 14.373L12.0293 14.4434L10.2598 15.043L10.0244 15.123L10.1025 15.3594C10.1211 15.4153 10.2981 15.9978 10.7139 16.709C10.6869 16.7148 10.6593 16.7197 10.6318 16.7266C9.75622 16.9353 9.07137 17.2164 8.60059 17.5859C8.12069 17.9626 7.85938 18.4358 7.85938 19V20.8096C7.05144 20.4636 6.13375 20.0633 5.41211 19.6084C4.99797 19.3474 4.66638 19.0801 4.45898 18.8105C4.25672 18.5475 4.18776 18.3039 4.24219 18.0645L6.23438 12.6465L6.23535 12.6436C6.41176 12.1446 6.56781 11.7114 6.83594 11.3145C7.09916 10.9249 7.47844 10.5596 8.11328 10.2227C9.46445 9.53732 10.4161 9.25 12 9.25ZM15.5 13.75C15.0359 13.75 14.5909 13.9345 14.2627 14.2627C13.9345 14.5909 13.75 15.0359 13.75 15.5C13.75 15.9641 13.9345 16.4091 14.2627 16.7373C14.5909 17.0654 15.0359 17.25 15.5 17.25C15.9641 17.25 16.4091 17.0655 16.7373 16.7373C17.0654 16.4091 17.25 15.9641 17.25 15.5C17.25 15.0359 17.0654 14.5909 16.7373 14.2627C16.4091 13.9345 15.9641 13.75 15.5 13.75ZM12 2.25C12.7293 2.25004 13.4286 2.53997 13.9443 3.05566C14.46 3.57138 14.75 4.27069 14.75 5C14.75 5.72931 14.46 6.42862 13.9443 6.94434C13.4286 7.46003 12.7293 7.74996 12 7.75C11.2707 7.75 10.5714 7.46002 10.0557 6.94434C9.53994 6.42861 9.25 5.72935 9.25 5C9.25 4.27065 9.53994 3.57139 10.0557 3.05566C10.5714 2.53998 11.2707 2.25 12 2.25Z" stroke="black" stroke-opacity="0.8" stroke-width="0.5"/>
<defs>
<linearGradient id="paint0_linear_586_627" x1="11.9951" y1="2" x2="11.9951" y2="22" gradientUnits="userSpaceOnUse">
<stop offset="0.639423" stop-color="#FFBFC5"/>
<stop offset="1" stop-color="#FF808C"/>
</linearGradient>
</defs>
</svg>
