<svg width="17" height="17" viewBox="0 0 17 17" fill="none" xmlns="http://www.w3.org/2000/svg">
<path d="M8.09527 9.44448C7.5331 9.44448 7.05526 9.24773 6.66174 8.85421C6.26822 8.46069 6.07146 7.98284 6.07146 7.42067V3.37305C6.07146 2.81088 6.26822 2.33304 6.66174 1.93952C7.05526 1.546 7.5331 1.34924 8.09527 1.34924C8.65744 1.34924 9.13528 1.546 9.5288 1.93952C9.92232 2.33304 10.1191 2.81088 10.1191 3.37305V7.42067C10.1191 7.98284 9.92232 8.46069 9.5288 8.85421C9.13528 9.24773 8.65744 9.44448 8.09527 9.44448ZM7.42067 14.1667V12.0923C6.25135 11.9349 5.28442 11.4121 4.51987 10.5239C3.75532 9.63562 3.37305 8.60123 3.37305 7.42067H4.72225C4.72225 8.35388 5.05124 9.14946 5.7092 9.80742C6.36716 10.4654 7.16252 10.7941 8.09527 10.7937C9.02802 10.7932 9.82361 10.4643 10.482 9.80675C11.1404 9.14923 11.4692 8.35388 11.4683 7.42067H12.8175C12.8175 8.60123 12.4352 9.63562 11.6707 10.5239C10.9061 11.4121 9.93919 11.9349 8.76987 12.0923V14.1667H7.42067Z" fill="#8E8E8E"/>
</svg>
