<svg width="24" height="24" viewBox="0 0 24 24" fill="none" xmlns="http://www.w3.org/2000/svg">
<path fill-rule="evenodd" clip-rule="evenodd" d="M2.25 6C2.25 5.40326 2.48705 4.83097 2.90901 4.40901C3.33097 3.98705 3.90326 3.75 4.5 3.75H19.5C20.0967 3.75 20.669 3.98705 21.091 4.40901C21.5129 4.83097 21.75 5.40326 21.75 6V10.875C21.75 11.1734 21.8685 11.4595 22.0795 11.6705C22.2905 11.8815 22.5766 12 22.875 12C23.1734 12 23.4595 11.8815 23.6705 11.6705C23.8815 11.4595 24 11.1734 24 10.875V6C24 4.80653 23.5259 3.66193 22.682 2.81802C21.8381 1.97411 20.6935 1.5 19.5 1.5H4.5C3.30653 1.5 2.16193 1.97411 1.31802 2.81802C0.474106 3.66193 0 4.80653 0 6L0 22.875C0.000195581 23.0974 0.0662816 23.3147 0.189912 23.4995C0.313541 23.6843 0.48917 23.8284 0.694615 23.9134C0.90006 23.9985 1.12611 24.0208 1.3442 23.9774C1.5623 23.9341 1.76267 23.8271 1.92 23.67L6.0945 19.5H12.375C12.6734 19.5 12.9595 19.3815 13.1705 19.1705C13.3815 18.9595 13.5 18.6734 13.5 18.375C13.5 18.0766 13.3815 17.7905 13.1705 17.5795C12.9595 17.3685 12.6734 17.25 12.375 17.25H5.1645L4.8345 17.58L2.25 20.16V6ZM19.5 21C19.2016 21 18.9155 20.8815 18.7045 20.6705C18.4935 20.4595 18.375 20.1734 18.375 19.875V17.625H16.125C15.8266 17.625 15.5405 17.5065 15.3295 17.2955C15.1185 17.0845 15 16.7984 15 16.5C15 16.2016 15.1185 15.9155 15.3295 15.7045C15.5405 15.4935 15.8266 15.375 16.125 15.375H18.375V13.125C18.375 12.8266 18.4935 12.5405 18.7045 12.3295C18.9155 12.1185 19.2016 12 19.5 12C19.7984 12 20.0845 12.1185 20.2955 12.3295C20.5065 12.5405 20.625 12.8266 20.625 13.125V15.375H22.875C23.1734 15.375 23.4595 15.4935 23.6705 15.7045C23.8815 15.9155 24 16.2016 24 16.5C24 16.7984 23.8815 17.0845 23.6705 17.2955C23.4595 17.5065 23.1734 17.625 22.875 17.625H20.625V19.875C20.625 20.1734 20.5065 20.4595 20.2955 20.6705C20.0845 20.8815 19.7984 21 19.5 21Z" fill="#191919"/>
</svg>
