<svg width="16" height="16" viewBox="0 0 16 16" fill="none" xmlns="http://www.w3.org/2000/svg">
<g clip-path="url(#clip0_666_1025)">
<path d="M0.931178 15.4087C1.21493 15.7162 2.38368 15.1799 3.30618 14.7499C3.99743 14.4287 6.76368 13.2937 8.13868 12.7049C8.50993 12.5462 9.04993 12.3387 9.43868 11.8274C9.78368 11.3724 10.6987 9.43994 8.85618 7.48244C6.98618 5.49494 5.05993 6.04369 4.33993 6.55369C3.91618 6.85369 3.57118 7.52994 3.41618 7.87369C2.76118 9.32619 1.82743 11.9874 1.44743 13.0337C1.16868 13.8049 0.649928 15.1037 0.931178 15.4087Z" fill="#FFC107"/>
<path d="M3.23119 8.31128C3.24869 8.52878 3.29244 8.88253 3.44244 9.56378C3.54494 10.0313 3.71244 10.5213 3.84869 10.845C4.25744 11.8188 4.83119 12.2113 5.41244 12.5263C6.39994 13.0613 7.07119 13.1613 7.07119 13.1613L6.26619 13.49C6.26619 13.49 5.77869 13.3888 5.11369 13.0613C4.47994 12.7488 3.81994 12.22 3.33744 11.185C3.12869 10.7363 3.00744 10.3013 2.93744 9.95628C2.85119 9.52878 2.83744 9.28628 2.83744 9.28628L3.23119 8.31128ZM2.24244 10.8463C2.24244 10.8463 2.34244 11.6575 3.01244 12.6813C3.79744 13.8788 4.89369 14.075 4.89369 14.075L4.16494 14.375C4.16494 14.375 3.35119 14.1263 2.57744 13.07C2.09494 12.4113 1.95994 11.6238 1.95994 11.6238L2.24244 10.8463ZM1.54869 12.7688C1.54869 12.7688 1.73119 13.4688 2.13119 13.9913C2.60744 14.615 3.21369 14.7963 3.21369 14.7963L2.65494 15.0438C2.65494 15.0438 2.23119 14.955 1.76744 14.3675C1.41494 13.9213 1.31494 13.4088 1.31494 13.4088L1.54869 12.7688Z" fill="#FF8F00"/>
<path opacity="0.44" d="M1.24516 14.5463C1.22016 14.49 1.22016 14.4263 1.24641 14.3713L4.43016 7.7688L4.95391 9.73755L1.60391 14.5763C1.51391 14.7113 1.31141 14.6938 1.24516 14.5463Z" fill="#FFFDE7"/>
<path d="M5.20644 10.3986C6.69394 12.1386 8.38769 11.9211 8.95144 11.4811C9.51644 11.0399 9.96269 9.52364 8.48144 7.81239C6.92894 6.01989 5.17144 6.53114 4.76519 6.91864C4.35894 7.30614 3.84144 8.80239 5.20644 10.3986Z" fill="url(#paint0_linear_666_1025)"/>
<path d="M10.3152 11.115C9.77268 10.66 9.48393 10.7412 9.09643 10.9025C8.59643 11.11 7.81018 11.2637 6.74268 10.9025L7.06393 10.1287C7.69768 10.3425 8.15643 10.2387 8.55268 10.005C9.06268 9.70497 9.76018 9.29372 10.8452 10.205C11.2977 10.585 11.7614 10.8375 12.1014 10.7225C12.3489 10.64 12.4802 10.2712 12.5464 9.97747C12.5527 9.95122 12.5627 9.87622 12.5702 9.80997C12.6302 9.35122 12.7302 8.36122 13.4677 7.85497C14.2564 7.31372 15.0852 7.31372 15.0852 7.31372L15.2352 8.80372C14.8539 8.74747 14.5889 8.82497 14.3652 8.94872C13.5227 9.41747 14.2564 11.2175 12.9452 11.8225C11.6839 12.4087 10.6527 11.3975 10.3152 11.115Z" fill="#03A9F4"/>
<path d="M5.67515 9.215L5.13265 8.72875C6.1289 7.61625 5.8664 6.79875 5.67515 6.20375C5.6364 6.08375 5.60015 5.97 5.5764 5.86125C5.4914 5.47625 5.4739 5.14125 5.50015 4.84875C5.11765 4.3725 4.9489 3.87375 4.93765 3.84C4.70515 3.13625 4.88015 2.45 5.2814 1.80625C6.09265 0.5 7.5614 0.5 7.5614 0.5L8.0514 1.81125C7.67891 1.79625 6.45765 1.815 6.08265 2.40625C5.6089 3.15125 5.92015 3.61125 5.94265 3.66375C6.0339 3.545 6.1264 3.45 6.2089 3.37625C6.80765 2.845 7.32765 2.76875 7.6589 2.79875C8.0314 2.8325 8.3689 3.02 8.61015 3.3275C8.8739 3.665 8.98265 4.10375 8.8989 4.5025C8.81765 4.89125 8.5589 5.22 8.17015 5.42875C7.4914 5.79375 6.9264 5.74375 6.54765 5.6175C6.55015 5.62625 6.5514 5.63625 6.5539 5.645C6.56765 5.7075 6.59515 5.795 6.62765 5.89625C6.8489 6.58125 7.26015 7.66875 5.67515 9.215ZM6.5939 4.52375C6.6664 4.57625 6.74265 4.62 6.8214 4.65125C7.0839 4.75625 7.37015 4.72125 7.69515 4.54625C7.8864 4.44375 7.9089 4.33375 7.9164 4.2975C7.9389 4.18875 7.9014 4.05 7.82015 3.94625C7.7489 3.855 7.6664 3.8075 7.56765 3.7975C7.38015 3.78125 7.1264 3.9 6.87265 4.12625C6.7514 4.235 6.6589 4.36875 6.5939 4.52375Z" fill="#F44336"/>
<path d="M7.84607 9.41867L7.06982 9.39742C7.06982 9.39742 7.43857 7.31492 8.63232 6.96492C8.85607 6.89992 9.10107 6.83367 9.34732 6.79742C9.49357 6.77492 9.72482 6.74117 9.83857 6.69867C9.86482 6.50242 9.78232 6.25242 9.68982 5.96867C9.61732 5.74867 9.54232 5.52242 9.50232 5.27492C9.42482 4.79242 9.55357 4.36617 9.86482 4.07242C10.2448 3.71617 10.8586 3.60242 11.5511 3.75992C11.9461 3.84992 12.2373 4.04367 12.4936 4.21367C12.8598 4.45742 13.0736 4.58117 13.5211 4.27992C14.0623 3.91492 13.3548 2.48617 12.9786 1.66117L14.3823 1.07617C14.5711 1.48867 15.4823 3.61117 14.8811 4.82242C14.6786 5.22992 14.3298 5.49992 13.8723 5.60117C12.8773 5.82367 12.2948 5.43617 11.8698 5.15367C11.6686 5.01992 11.4923 4.91492 11.3011 4.85992C9.97232 4.48117 11.8273 6.43617 10.9586 7.31492C10.4373 7.84117 9.16357 7.97992 9.08107 7.99992C8.26107 8.19742 7.84607 9.41867 7.84607 9.41867Z" fill="#F48FB1"/>
<path d="M5.49861 4.84863C5.47486 5.12363 5.46361 5.28738 5.53486 5.64488C5.87861 5.89738 6.62736 5.89738 6.62736 5.89738C6.59486 5.79613 6.56611 5.70863 6.55361 5.64613C6.55111 5.63738 6.54986 5.62738 6.54736 5.61863C5.78611 5.23863 5.49861 4.84863 5.49861 4.84863Z" fill="#C92B27"/>
<path d="M3.94143 6.08011L2.64893 5.44636L3.29268 4.51636L4.30643 5.18761L3.94143 6.08011Z" fill="#FFC107"/>
<path d="M2.03613 4.32507C1.37613 4.23632 0.703633 3.67632 0.629883 3.61257L1.27863 2.85132C1.47488 3.01757 1.89113 3.29632 2.16988 3.33382L2.03613 4.32507Z" fill="#FB8C00"/>
<path d="M3.20146 2.65887L2.25146 2.34762C2.36021 2.01512 2.38896 1.65637 2.33271 1.31012L3.32021 1.15137C3.40146 1.65387 3.36021 2.17512 3.20146 2.65887Z" fill="#03A9F4"/>
<path d="M9.13428 1.91565L10.1112 1.7019L10.3933 2.9914L9.4164 3.20515L9.13428 1.91565Z" fill="#FB8C00"/>
<path d="M11.5576 2.22114L10.8701 1.49489C11.2301 1.15364 11.3126 0.707393 11.3126 0.702393L12.3001 0.863643C12.2876 0.942393 12.1614 1.64989 11.5576 2.22114Z" fill="#FFC107"/>
<path d="M11.9395 6.07256L12.8128 5.79956L13.1111 6.75406L12.2377 7.02706L11.9395 6.07256Z" fill="#FB8C00"/>
<path d="M12.1938 14.1288L11.2 14.0113C11.2425 13.6576 10.9787 13.2238 10.9062 13.1276L11.7063 12.5276C11.7663 12.6063 12.2875 13.3276 12.1938 14.1288Z" fill="#F44336"/>
<path d="M15.0464 12.8612C14.6727 12.805 14.2902 12.7825 13.9127 12.7962L13.8789 11.7962C14.3177 11.7812 14.7614 11.8062 15.1952 11.8725L15.0464 12.8612Z" fill="#FB8C00"/>
<path d="M13.7017 14.2377L14.4042 13.5261L15.371 14.4809L14.6685 15.1924L13.7017 14.2377Z" fill="#F48FB1"/>
<path d="M11.6376 7.91675L12.3601 8.74287L11.534 9.46537L10.8115 8.63925L11.6376 7.91675Z" fill="#F44336"/>
</g>
<defs>
<linearGradient id="paint0_linear_666_1025" x1="9.29819" y1="7.72977" x2="5.57731" y2="9.96227" gradientUnits="userSpaceOnUse">
<stop offset="0.024" stop-color="#8F4700"/>
<stop offset="1" stop-color="#703E2D"/>
</linearGradient>
<clipPath id="clip0_666_1025">
<rect width="16" height="16" fill="white"/>
</clipPath>
</defs>
</svg>
