<svg width="24" height="24" viewBox="0 0 24 24" fill="none" xmlns="http://www.w3.org/2000/svg">
<path d="M0.99707 20.9376V16.9494C0.99707 16.3845 1.19249 15.9109 1.58332 15.5287C1.97416 15.1465 2.44343 14.9554 2.99113 14.9554H6.25639C6.58874 14.9554 6.90446 15.0385 7.20357 15.2046C7.50268 15.3708 7.74363 15.5951 7.92642 15.8776C8.40831 16.5257 9.00254 17.0325 9.7091 17.3981C10.4157 17.7637 11.1674 17.9465 11.9644 17.9465C12.7786 17.9465 13.539 17.7637 14.2456 17.3981C14.9521 17.0325 15.5377 16.5257 16.0023 15.8776C16.2184 15.5951 16.4719 15.3708 16.7631 15.2046C17.0542 15.0385 17.3573 14.9554 17.6724 14.9554H20.9376C21.5026 14.9554 21.9762 15.1465 22.3584 15.5287C22.7406 15.9109 22.9317 16.3845 22.9317 16.9494V20.9376H15.9525V18.6693C15.3709 19.0847 14.7434 19.4005 14.0701 19.6165C13.3968 19.8325 12.6949 19.9405 11.9644 19.9405C11.2498 19.9405 10.5519 19.8285 9.87062 19.6045C9.18932 19.3805 8.55787 19.0605 7.97627 18.6444V20.9376H0.99707ZM3.98815 13.9584C3.1573 13.9584 2.45107 13.6676 1.86947 13.086C1.28787 12.5044 0.99707 11.7981 0.99707 10.9673C0.99707 10.1198 1.28787 9.40958 1.86947 8.83662C2.45107 8.26366 3.1573 7.97685 3.98815 7.97619C4.83563 7.97619 5.54618 8.263 6.1198 8.83662C6.69342 9.41025 6.9799 10.1205 6.97924 10.9673C6.97924 11.7981 6.69276 12.5044 6.1198 13.086C5.54684 13.6676 4.83629 13.9584 3.98815 13.9584ZM19.9406 13.9584C19.1097 13.9584 18.4035 13.6676 17.8219 13.086C17.2403 12.5044 16.9495 11.7981 16.9495 10.9673C16.9495 10.1198 17.2403 9.40958 17.8219 8.83662C18.4035 8.26366 19.1097 7.97685 19.9406 7.97619C20.7881 7.97619 21.4986 8.263 22.0723 8.83662C22.6459 9.41025 22.9324 10.1205 22.9317 10.9673C22.9317 11.7981 22.6452 12.5044 22.0723 13.086C21.4993 13.6676 20.7887 13.9584 19.9406 13.9584ZM11.9644 11.9643C10.8344 10.934 9.91216 10.0656 9.19763 9.35907C8.48309 8.6525 7.92642 8.04199 7.52761 7.52752C7.12879 7.01306 6.85461 6.56041 6.70506 6.16957C6.5555 5.77874 6.48073 5.38391 6.48073 4.9851C6.48073 4.15425 6.77153 3.44802 7.35313 2.86642C7.93472 2.28482 8.64926 1.99402 9.49674 1.99402C9.96202 1.99402 10.4107 2.09804 10.8427 2.30609C11.2748 2.51413 11.6487 2.79231 11.9644 3.1406C12.2801 2.79164 12.654 2.51347 13.086 2.30609C13.5181 2.09871 13.9667 1.99468 14.432 1.99402C15.2795 1.99402 15.994 2.28482 16.5756 2.86642C17.1572 3.44802 17.448 4.15425 17.448 4.9851C17.448 5.38391 17.3733 5.77874 17.2237 6.16957C17.0742 6.56041 16.8 7.01306 16.4012 7.52752C16.0023 8.04199 15.4457 8.65284 14.7311 9.36006C14.0166 10.0673 13.0943 10.9354 11.9644 11.9643ZM11.9644 9.27232C13.1608 8.17559 14.0415 7.28259 14.6065 6.59331C15.1715 5.90403 15.454 5.36796 15.454 4.9851C15.454 4.70261 15.3543 4.46598 15.1549 4.27522C14.9555 4.08445 14.7145 3.98874 14.432 3.98807C14.2326 3.98807 14.0375 4.04624 13.8468 4.16255C13.656 4.27887 13.4606 4.45335 13.2605 4.68599L11.9893 6.15661L10.7181 4.73585C10.4855 4.46997 10.2734 4.27887 10.082 4.16255C9.89056 4.04624 9.69581 3.98807 9.49773 3.98807C9.21458 3.98807 8.9733 4.08379 8.77389 4.27522C8.57448 4.46665 8.47478 4.70328 8.47478 4.9851C8.47478 5.3673 8.75727 5.90337 9.32226 6.59331C9.88724 7.28325 10.7679 8.17626 11.9644 9.27232Z" fill="#B34962"/>
</svg>
