<svg width="19" height="19" viewBox="0 0 19 19" fill="none" xmlns="http://www.w3.org/2000/svg">
<path d="M11.2384 7.68938L8.84428 7.52039C8.84428 8.87236 5.91501 9.49201 5.91501 10.5623C5.91501 11.3228 6.61916 11.52 6.61916 11.52C6.61916 11.52 4.39404 12.365 4.39404 14.7309C4.39404 16.618 5.88685 17.4348 7.66131 17.4348H10.5624C10.5624 17.4348 10.7596 16.8715 10.3934 14.8717C9.68927 10.9566 12.534 11.6045 11.2384 7.68938Z" fill="#E84D88"/>
<path d="M5.74606 13.1535L5.91505 12.7592L6.22488 12.6747C6.98536 12.6747 7.21069 13.1535 7.60502 13.1535V14.759C7.60502 14.759 7.29519 15.0406 6.08405 15.0406C5.49256 15.0406 5.09824 14.6463 4.92924 13.8013C4.73208 13.1253 5.74606 13.1535 5.74606 13.1535Z" fill="#FED0AC"/>
<path d="M6.22489 12.6747C6.22489 12.6747 5.8869 12.7592 5.8869 12.9563C5.8869 13.069 6.28122 12.9282 6.56288 13.238C6.16856 13.0408 5.7179 13.1535 5.7179 13.1535C5.5489 12.9845 5.68973 12.6747 6.22489 12.6747Z" fill="#E0A372"/>
<path opacity="0.3" d="M7.32319 13.0127C8.95682 12.6747 10.5905 12.1396 10.5905 12.1396L10.337 14.2802L10.3933 14.6182C10.3933 14.6182 9.40748 15.1534 7.35135 15.3223V15.1534C7.35135 15.1534 5.83039 15.3787 5.35156 14.8154C6.11205 15.1534 7.32319 14.759 7.32319 14.759V13.0127ZM10.0835 8.87231L11.2383 10.9003L10.8721 11.6044L10.0835 8.87231Z" fill="#231F20"/>
<path d="M11.8861 7.68933C11.8861 7.68933 14.0549 11.0129 13.7733 12.3931C13.4634 13.9704 7.49221 14.8717 7.49221 14.8717L7.40771 13.0691C7.40771 13.0691 11.0975 12.1959 11.5763 11.5481C11.2665 10.8439 10.0835 8.84414 10.0835 8.84414L11.8861 7.68933Z" fill="#E84D88"/>
<path d="M7.99902 7.40772L10.365 3.23914L10.4213 7.54855C9.43549 7.97104 8.87217 7.54855 8.87217 7.54855C8.56235 6.98523 7.99902 7.40772 7.99902 7.40772Z" fill="#E0A372"/>
<path d="M11.3508 2.56311C10.3931 0.675982 8.84399 0.788646 8.84399 0.788646C6.90053 -0.0845028 4.81624 1.80263 4.42192 2.87294C3.6051 5.04173 5.49223 5.91487 5.74572 5.71771L9.77347 4.45024C9.77347 4.45024 10.5903 5.29522 10.2241 6.98519C9.85797 8.64698 11.5479 9.88629 11.5479 9.88629C11.5479 9.88629 13.2097 6.28103 11.3508 2.56311Z" fill="#DBB471"/>
<path d="M4.84467 3.49254C4.78834 2.90105 5.99948 3.01371 6.6473 3.66153C8.05561 5.098 8.4781 4.73184 8.4781 4.73184C8.3936 4.61918 8.33727 4.47835 8.3091 4.33752C8.16827 3.7742 8.36543 3.23904 8.78792 3.15454C9.21041 3.07004 9.68924 3.46437 9.83007 4.02769C9.9709 4.53468 9.8019 5.0135 9.46391 5.1825C9.9709 6.73164 9.49208 6.7598 8.75976 7.32312C7.18246 8.61876 6.92896 8.28077 6.75997 7.77378C6.67547 7.54845 6.50647 7.66112 6.30931 7.63295C6.30931 7.63295 6.28114 7.49212 6.14031 7.12596C6.02765 6.7598 5.66149 6.81613 5.77415 6.61897C5.88682 6.42181 5.94315 6.30914 5.85865 6.19648C5.83048 6.14015 5.46433 6.30915 5.35166 6.11198C5.1545 5.77399 5.66149 5.71766 5.57699 5.098C5.57699 4.76001 4.95734 4.70368 4.84467 3.49254Z" fill="#FED0AC"/>
<path d="M6.30924 6.81621C6.19657 6.81621 6.11207 6.78804 6.02757 6.75987C5.94308 6.73171 5.85858 6.67538 5.85858 6.53455C5.80225 6.56271 5.80225 6.64721 5.80225 6.73171C5.83041 6.81621 5.88674 6.87254 5.94308 6.92887C5.99941 6.9852 6.05574 7.01337 6.11207 7.04154C6.08391 7.09787 6.08391 7.18237 6.11207 7.26686C6.14024 7.35136 6.16841 7.40769 6.19657 7.46403C6.2529 7.52036 6.28107 7.57669 6.3374 7.60486C6.3374 7.46403 6.30924 7.35136 6.30924 7.26686C6.30924 7.2387 6.3374 7.18237 6.3374 7.1542C6.36557 7.12603 6.39373 7.0697 6.4219 7.04154L6.56273 6.81621H6.30924Z" fill="#C94747"/>
<path d="M8.81594 3.49255C8.70328 3.54888 8.61878 3.63338 8.59061 3.74604C8.53428 3.85871 8.53428 3.99954 8.56245 4.1122C8.59061 4.22487 8.61878 4.30936 8.67511 4.39386C8.61878 4.39386 8.59061 4.42203 8.56245 4.45019C8.61878 4.45019 8.67511 4.47836 8.70328 4.50653C8.73144 4.53469 8.78777 4.56286 8.81594 4.59102C8.84411 4.61919 8.87227 4.64736 8.90044 4.70369C8.92861 4.73186 8.92861 4.78819 8.95677 4.87269C9.0131 4.84452 9.04127 4.76002 9.04127 4.70369C9.04127 4.61919 9.0131 4.53469 8.95677 4.47836C8.90044 4.42203 8.84411 4.3657 8.75961 4.3657H8.70328C8.67511 4.14037 8.67511 3.97137 8.73144 3.80237C8.75961 3.71788 8.81594 3.63338 8.90044 3.57705C8.95677 3.52071 9.04127 3.43621 9.12577 3.37988C9.04127 3.40805 8.92861 3.43621 8.81594 3.49255Z" fill="#664E27"/>
<path d="M5.88667 5.01361C5.8585 4.90095 5.83033 4.84462 5.774 4.78828C5.71767 4.73195 5.66134 4.64745 5.60501 4.56296C5.54867 4.47846 5.52051 4.33763 5.52051 4.22496C5.54867 4.1123 5.60501 4.0278 5.6895 3.99963C5.66134 4.08413 5.66134 4.1968 5.66134 4.25313C5.66134 4.30946 5.6895 4.39396 5.74584 4.47846C5.774 4.56296 5.8585 4.64745 5.88667 4.73195C5.943 4.78828 5.97117 4.92911 5.88667 5.01361Z" fill="#E0A372"/>
<path d="M6.6756 4.22494C6.5911 4.30944 6.56294 4.4221 6.5066 4.53477C6.47844 4.64743 6.42211 4.7601 6.33761 4.8446C6.28127 4.95726 6.16861 5.04176 6.05595 5.09809C5.94328 5.15442 5.77429 5.15442 5.66162 5.06992C5.88695 4.98543 5.99961 4.8446 6.11228 4.6756C6.16861 4.5911 6.22494 4.5066 6.30944 4.39394C6.42211 4.28127 6.53477 4.19678 6.6756 4.22494Z" fill="#664E27"/>
</svg>
