<svg width="24" height="24" viewBox="0 0 24 24" fill="none" xmlns="http://www.w3.org/2000/svg">
<path d="M11.7746 10.0125L14.9621 10.2375C16.6871 15.45 12.8996 14.5875 13.8371 19.8C14.3246 22.4625 14.0621 23.2125 14.0621 23.2125H10.1996C7.83711 23.2125 5.84961 22.125 5.84961 19.6125C5.84961 16.4625 8.81211 15.3375 8.81211 15.3375C8.81211 15.3375 7.87461 15.075 7.87461 14.0625C7.87461 12.6375 11.7746 11.8125 11.7746 10.0125Z" fill="#FFC5D0"/>
<path d="M7.64968 17.5125L7.87468 16.9875L8.28718 16.875C9.29968 16.875 9.59968 17.5125 10.1247 17.5125V19.65C10.1247 19.65 9.71218 20.025 8.09968 20.025C7.31218 20.025 6.78718 19.5 6.56218 18.375C6.29968 17.475 7.64968 17.5125 7.64968 17.5125Z" fill="#FFE1BD"/>
<path d="M8.28734 16.875C8.28734 16.875 7.83734 16.9875 7.83734 17.25C7.83734 17.4 8.36234 17.2125 8.73734 17.625C8.21234 17.3625 7.61234 17.5125 7.61234 17.5125C7.38734 17.2875 7.57484 16.875 8.28734 16.875Z" fill="#E6B796"/>
<path opacity="0.3" d="M9.75 17.325C11.925 16.875 14.1 16.1625 14.1 16.1625L13.7625 19.0125L13.8375 19.4625C13.8375 19.4625 12.525 20.175 9.7875 20.4V20.175C9.7875 20.175 7.7625 20.475 7.125 19.725C8.1375 20.175 9.75 19.65 9.75 19.65V17.325ZM13.425 11.8125L14.9625 14.5125L14.475 15.45L13.425 11.8125Z" fill="#231F20"/>
<path d="M15.8248 10.2375C15.8248 10.2375 18.7123 14.6625 18.3373 16.5C17.9248 18.6 9.97481 19.8 9.97481 19.8L9.8623 17.4C9.8623 17.4 14.7748 16.2375 15.4123 15.375C14.9998 14.4375 13.4248 11.775 13.4248 11.775L15.8248 10.2375Z" fill="url(#paint0_linear_587_757)"/>
<path d="M10.6504 9.8625L13.8004 4.3125L13.8754 10.05C12.5629 10.6125 11.8129 10.05 11.8129 10.05C11.4004 9.3 10.6504 9.8625 10.6504 9.8625Z" fill="#E6B796"/>
<path d="M15.1124 3.41253C13.8374 0.900034 11.7749 1.05003 11.7749 1.05003C9.18735 -0.112466 6.41235 2.40003 5.88735 3.82503C4.79985 6.71253 7.31235 7.87503 7.64985 7.61253L13.0124 5.92503C13.0124 5.92503 14.0999 7.05003 13.6124 9.30003C13.1249 11.5125 15.3749 13.1625 15.3749 13.1625C15.3749 13.1625 17.5874 8.36253 15.1124 3.41253Z" fill="black"/>
<path d="M6.44979 4.64994C6.37479 3.86244 7.98729 4.01244 8.84979 4.87494C10.7248 6.78744 11.2873 6.29994 11.2873 6.29994C11.1748 6.14994 11.0998 5.96244 11.0623 5.77494C10.8748 5.02494 11.1373 4.31244 11.6998 4.19994C12.2623 4.08744 12.8998 4.61244 13.0873 5.36244C13.2748 6.03744 13.0498 6.67494 12.5998 6.89994C13.2748 8.96244 12.6373 8.99994 11.6623 9.74994C9.56229 11.4749 9.22479 11.0249 8.99979 10.3499C8.88729 10.0499 8.66229 10.1999 8.39979 10.1624C8.39979 10.1624 8.36229 9.97494 8.17479 9.48744C8.02479 8.99994 7.53729 9.07494 7.68729 8.81244C7.83729 8.54994 7.91229 8.39994 7.79979 8.24994C7.76229 8.17494 7.27479 8.39994 7.12479 8.13744C6.86229 7.68744 7.53729 7.61244 7.42479 6.78744C7.42479 6.33744 6.59979 6.26244 6.44979 4.64994Z" fill="#FFE1BD"/>
<path d="M8.39961 9.07495C8.24961 9.07495 8.13711 9.03745 8.02461 8.99995C7.91211 8.96245 7.79961 8.88745 7.79961 8.69995C7.72461 8.73745 7.72461 8.84995 7.72461 8.96245C7.76211 9.07495 7.83711 9.14995 7.91211 9.22495C7.98711 9.29995 8.06211 9.33745 8.13711 9.37495C8.09961 9.44995 8.09961 9.56245 8.13711 9.67495C8.17461 9.78745 8.21211 9.86245 8.24961 9.93745C8.32461 10.0125 8.36211 10.0875 8.43711 10.125C8.43711 9.93745 8.39961 9.78745 8.39961 9.67495C8.39961 9.63745 8.43711 9.56245 8.43711 9.52495C8.47461 9.48745 8.51211 9.41245 8.54961 9.37495L8.73711 9.07495H8.39961Z" fill="#C94747"/>
<path d="M11.7371 4.65C11.5871 4.725 11.4746 4.8375 11.4371 4.9875C11.3621 5.1375 11.3621 5.325 11.3996 5.475C11.4371 5.625 11.4746 5.7375 11.5496 5.85C11.4746 5.85 11.4371 5.8875 11.3996 5.925C11.4746 5.925 11.5496 5.9625 11.5871 6C11.6246 6.0375 11.6996 6.075 11.7371 6.1125C11.7746 6.15 11.8121 6.1875 11.8496 6.2625C11.8871 6.3 11.8871 6.375 11.9246 6.4875C11.9996 6.45 12.0371 6.3375 12.0371 6.2625C12.0371 6.15 11.9996 6.0375 11.9246 5.9625C11.8496 5.8875 11.7746 5.8125 11.6621 5.8125H11.5871C11.5496 5.5125 11.5496 5.2875 11.6246 5.0625C11.6621 4.95 11.7371 4.8375 11.8496 4.7625C11.9246 4.6875 12.0371 4.575 12.1496 4.5C12.0371 4.5375 11.8871 4.575 11.7371 4.65Z" fill="#664E27"/>
<path d="M7.83711 6.67495C7.79961 6.52495 7.76211 6.44995 7.68711 6.37495C7.61211 6.29995 7.53711 6.18745 7.46211 6.07495C7.38711 5.96245 7.34961 5.77495 7.34961 5.62495C7.38711 5.47495 7.46211 5.36245 7.57461 5.32495C7.53711 5.43745 7.53711 5.58745 7.53711 5.66245C7.53711 5.73745 7.57461 5.84995 7.64961 5.96245C7.68711 6.07495 7.79961 6.18745 7.83711 6.29995C7.91211 6.37495 7.94961 6.56245 7.83711 6.67495Z" fill="#E6B796"/>
<path d="M8.88711 5.62494C8.77461 5.73744 8.73711 5.88744 8.66211 6.03744C8.62461 6.18744 8.54961 6.33744 8.43711 6.44994C8.36211 6.59994 8.21211 6.71244 8.06211 6.78744C7.91211 6.86244 7.68711 6.86244 7.53711 6.74994C7.87461 6.63744 7.98711 6.44994 8.13711 6.22494C8.21211 6.11244 8.28711 5.99994 8.39961 5.84994C8.54961 5.69994 8.69961 5.58744 8.88711 5.62494Z" fill="#664E27"/>
<defs>
<linearGradient id="paint0_linear_587_757" x1="14.1166" y1="10.2375" x2="14.1166" y2="19.8" gradientUnits="userSpaceOnUse">
<stop stop-color="#FFC5D0"/>
<stop offset="1" stop-color="#FF808C"/>
</linearGradient>
</defs>
</svg>
