<svg width="24" height="24" viewBox="0 0 24 24" fill="none" xmlns="http://www.w3.org/2000/svg">
<path d="M17.7593 2.56763C17.8875 2.56771 18.0141 2.59659 18.1296 2.65214C18.2452 2.70769 18.3468 2.78849 18.4269 2.88858L18.4911 2.9793L22.1285 8.97036C22.2121 9.10788 22.2553 9.26618 22.253 9.4271C22.2507 9.58803 22.2031 9.74505 22.1157 9.88015L22.0498 9.96745L12.6352 21.0937C12.5606 21.1819 12.4688 21.254 12.3655 21.3058C12.2623 21.3575 12.1496 21.3878 12.0342 21.3949C11.9189 21.4019 11.8034 21.3855 11.6946 21.3467C11.5857 21.3079 11.4859 21.2475 11.4011 21.169L11.3292 21.0937L1.91465 9.96745C1.81081 9.8446 1.74368 9.69497 1.72097 9.53573C1.69827 9.37648 1.7209 9.21405 1.78627 9.06708L1.83591 8.97036L5.47335 2.9793C5.53984 2.86965 5.63012 2.77634 5.73752 2.70626C5.84493 2.63619 5.9667 2.59115 6.09385 2.57447L6.20511 2.56763H17.7593ZM14.9906 10.2704H8.97298L11.9814 17.6925L14.9906 10.2704ZM19.5515 10.2704H16.8375L14.341 16.4284L19.5515 10.2704ZM7.12602 10.2704H4.41207L9.62173 16.4267L7.12602 10.2704ZM8.27973 4.27936H6.68525L4.08684 8.55869H7.0567L8.27973 4.27936ZM13.9045 4.27936H10.0591L8.83605 8.55869H15.1275L13.9045 4.27936ZM17.2783 4.27936H15.6838L16.9069 8.55869H19.8767L17.2783 4.27936Z" fill="url(#paint0_linear_898_807)"/>
<defs>
<linearGradient id="paint0_linear_898_807" x1="11.9827" y1="2.56763" x2="11.9827" y2="21.3965" gradientUnits="userSpaceOnUse">
<stop stop-color="#40C0E7"/>
<stop offset="1" stop-color="#246B81"/>
</linearGradient>
</defs>
</svg>
