<svg width="27" height="27" viewBox="0 0 27 27" fill="none" xmlns="http://www.w3.org/2000/svg">
<circle cx="13.4172" cy="13.4172" r="12.9172" fill="white"/>
<circle cx="13.4172" cy="13.4172" r="12.9172" stroke="#FFC5D0"/>
<circle cx="13.4172" cy="13.4172" r="12.9172" stroke="black" stroke-opacity="0.25"/>
<path d="M8.70619 12.4409C8.70619 12.7943 8.62286 13.1276 8.45619 13.4409C8.28953 13.7543 8.02286 14.0109 7.65619 14.2109C7.28952 14.4043 6.81952 14.5009 6.24619 14.5009H4.98619V17.3209H3.84619V10.3709H6.24619C6.77952 10.3709 7.22952 10.4643 7.59619 10.6509C7.96953 10.8309 8.24619 11.0776 8.42619 11.3909C8.61286 11.7043 8.70619 12.0543 8.70619 12.4409ZM6.24619 13.5709C6.67952 13.5709 7.00286 13.4743 7.21619 13.2809C7.42953 13.0809 7.53619 12.8009 7.53619 12.4409C7.53619 11.6809 7.10619 11.3009 6.24619 11.3009H4.98619V13.5709H6.24619ZM13.4035 17.3209L11.8035 14.5409H10.9335V17.3209H9.79346V10.3709H12.1935C12.7268 10.3709 13.1768 10.4643 13.5435 10.6509C13.9168 10.8376 14.1935 11.0876 14.3735 11.4009C14.5601 11.7143 14.6535 12.0643 14.6535 12.4509C14.6535 12.9043 14.5201 13.3176 14.2535 13.6909C13.9935 14.0576 13.5901 14.3076 13.0435 14.4409L14.7635 17.3209H13.4035ZM10.9335 13.6309H12.1935C12.6201 13.6309 12.9401 13.5243 13.1535 13.3109C13.3735 13.0976 13.4835 12.8109 13.4835 12.4509C13.4835 12.0909 13.3768 11.8109 13.1635 11.6109C12.9501 11.4043 12.6268 11.3009 12.1935 11.3009H10.9335V13.6309ZM19.2818 17.3909C18.6351 17.3909 18.0385 17.2409 17.4918 16.9409C16.9518 16.6343 16.5218 16.2109 16.2018 15.6709C15.8885 15.1243 15.7318 14.5109 15.7318 13.8309C15.7318 13.1509 15.8885 12.5409 16.2018 12.0009C16.5218 11.4609 16.9518 11.0409 17.4918 10.7409C18.0385 10.4343 18.6351 10.2809 19.2818 10.2809C19.9351 10.2809 20.5318 10.4343 21.0718 10.7409C21.6185 11.0409 22.0485 11.4609 22.3618 12.0009C22.6752 12.5409 22.8318 13.1509 22.8318 13.8309C22.8318 14.5109 22.6752 15.1243 22.3618 15.6709C22.0485 16.2109 21.6185 16.6343 21.0718 16.9409C20.5318 17.2409 19.9351 17.3909 19.2818 17.3909ZM19.2818 16.4009C19.7418 16.4009 20.1518 16.2976 20.5118 16.0909C20.8718 15.8776 21.1518 15.5776 21.3518 15.1909C21.5585 14.7976 21.6618 14.3443 21.6618 13.8309C21.6618 13.3176 21.5585 12.8676 21.3518 12.4809C21.1518 12.0943 20.8718 11.7976 20.5118 11.5909C20.1518 11.3843 19.7418 11.2809 19.2818 11.2809C18.8218 11.2809 18.4118 11.3843 18.0518 11.5909C17.6918 11.7976 17.4085 12.0943 17.2018 12.4809C17.0018 12.8676 16.9018 13.3176 16.9018 13.8309C16.9018 14.3443 17.0018 14.7976 17.2018 15.1909C17.4085 15.5776 17.6918 15.8776 18.0518 16.0909C18.4118 16.2976 18.8218 16.4009 19.2818 16.4009Z" fill="#53C2DB" fill-opacity="0.9"/>
</svg>
