<svg width="14" height="14" viewBox="0 0 14 14" fill="none" xmlns="http://www.w3.org/2000/svg">
<g clip-path="url(#clip0_1238_305)">
<path d="M4.96899 7.45286L4.3729 5.97521L4.3893 3.58318C4.3893 3.58318 5.99493 3.34255 6.83821 3.22661C7.68149 3.11068 9.35821 2.40411 10.8873 3.08114C12.6241 3.85005 13.5451 5.62958 13.0813 8.34208C12.6176 11.0546 10.5843 13.2497 8.75337 13.486C7.84665 13.603 7.68477 13.2508 6.99024 13.3011C6.42805 13.3416 6.45868 13.6336 5.49946 13.5844C4.54024 13.5352 3.72649 13.1786 3.24743 12.5836C2.76837 11.9886 4.96899 7.45286 4.96899 7.45286Z" fill="#DC0D28"/>
<path d="M2.32227 4.04559C0.947431 5.19403 0.298837 7.61449 1.39587 10.1979C2.37149 12.497 3.93009 13.1543 3.93009 13.1543C3.93009 13.1543 6.65571 12.9761 8.55774 11.9501C10.4598 10.9242 12.2962 9.13809 12.2962 6.78981C12.2962 4.44153 11.0723 3.64746 10.9399 3.61465C10.8076 3.58184 10.2618 3.92856 9.64931 3.94496C9.03681 3.96137 8.55774 3.81262 8.55774 3.81262L6.6229 4.45793L4.81384 4.03575C4.81384 4.03575 4.75587 3.78309 4.95165 3.68028C5.35852 3.46809 6.20837 3.82903 6.55618 3.81262C6.90399 3.79621 7.20149 3.33246 7.20149 3.33246C7.20149 3.33246 6.39102 3.24934 6.10993 3.18371C5.82884 3.12028 3.92681 2.70575 2.32227 4.04559Z" fill="#FF5117"/>
<path d="M6.78433 4.06014C6.28339 4.08311 4.94027 3.6117 4.81886 3.98029C4.6898 4.37186 5.68949 4.89139 6.90683 4.80608C8.17667 4.71748 8.96746 4.01529 8.76621 3.63686C8.56605 3.25842 7.74246 4.01529 6.78433 4.06014Z" fill="#8D1D0A"/>
<path d="M5.58229 1.8549C5.58229 1.8549 5.3712 1.84397 5.25964 1.79912C5.14807 1.75428 4.99057 1.75756 5.0037 1.56506C5.02557 1.2424 5.43901 0.910998 5.53854 0.851936C5.72776 0.740373 6.05917 0.770998 6.18495 0.851936C6.34136 0.952561 6.26261 1.32006 6.26261 1.32006C6.26261 1.32006 6.81932 2.15569 6.89698 2.66756C6.96807 3.13459 7.25901 4.4974 6.81932 4.58272C6.41792 4.66037 6.58526 3.61365 6.36323 3.10178C6.22979 2.79553 6.04057 2.4674 5.86229 2.24428C5.76134 2.12014 5.66785 1.99012 5.58229 1.8549Z" fill="#513630"/>
<path d="M11.5293 0.552117C11.5741 0.474461 11.4844 0.39571 11.1169 0.384773C10.7494 0.373835 8.74456 0.184617 7.60925 1.59884C6.79331 2.61493 6.91909 3.48118 6.91909 3.48118L7.66503 3.51509L11.5293 0.552117Z" fill="#2F7C31"/>
<path d="M9.06713 1.94383C9.74198 1.47789 11.539 0.462891 11.539 0.462891C11.539 0.462891 11.539 0.718828 11.4274 0.941953C11.3159 1.16508 10.9374 2.26758 9.40073 3.0693C7.95807 3.8218 6.99557 3.63695 6.91682 3.50352C6.84026 3.37008 7.9537 2.71273 9.06713 1.94383Z" fill="#709F19"/>
<path d="M4.11233 4.37186C3.81374 3.94202 3.09077 4.06342 2.44217 4.92858C1.60655 6.04202 1.65139 7.52295 2.21905 7.61264C2.78233 7.70124 2.28577 7.13358 3.15421 6.0092C3.81921 5.14842 4.49077 4.91764 4.11233 4.37186Z" fill="#FFD2B1"/>
</g>
<defs>
<clipPath id="clip0_1238_305">
<rect width="14" height="14" fill="white"/>
</clipPath>
</defs>
</svg>
