<svg width="151" height="63" viewBox="0 0 151 63" fill="none" xmlns="http://www.w3.org/2000/svg">
<path d="M8.89095 40.9602C8.42494 41.3631 7.94195 41.6484 7.44198 41.8163C6.94201 41.9841 6.45188 42.0166 5.97159 41.9136C5.49735 41.8054 5.07368 41.5477 4.70058 41.1406L6.35279 39.7123C6.58104 39.9274 6.8197 40.0383 7.06877 40.0451C7.3126 40.0458 7.54648 39.9494 7.77041 39.7558C8.00039 39.557 8.13748 39.3486 8.18168 39.1306C8.22065 38.9065 8.15904 38.7007 7.99686 38.5131C7.86083 38.3558 7.69387 38.2727 7.49599 38.264C7.30417 38.2501 7.1008 38.2778 6.8859 38.3473C6.67704 38.4115 6.39377 38.5242 6.03608 38.6854C5.51467 38.914 5.06891 39.0773 4.6988 39.1752C4.32869 39.2731 3.94258 39.279 3.54046 39.1931C3.13834 39.1072 2.76463 38.8645 2.41932 38.465C1.9066 37.8719 1.72121 37.2232 1.86315 36.5189C1.99986 35.8085 2.41318 35.1551 3.10311 34.5587C3.80515 33.9518 4.51751 33.632 5.24019 33.5995C5.95764 33.5609 6.59048 33.8281 7.13869 34.4011L5.45925 35.8529C5.26926 35.6576 5.05497 35.5626 4.81636 35.568C4.57253 35.5673 4.34167 35.6611 4.1238 35.8494C3.93618 36.0116 3.82935 36.1939 3.80331 36.3962C3.77203 36.5924 3.83748 36.7843 3.99967 36.9719C4.17756 37.1777 4.41303 37.2544 4.7061 37.202C4.99918 37.1495 5.40903 37.012 5.93567 36.7894C6.46755 36.5728 6.91551 36.4182 7.27957 36.3255C7.64968 36.2277 8.03317 36.2187 8.43006 36.2986C8.82695 36.3785 9.1902 36.6091 9.51981 36.9903C9.83372 37.3535 10.0251 37.7644 10.0938 38.2231C10.1686 38.6766 10.1064 39.1429 9.90706 39.6218C9.70777 40.1008 9.36906 40.5469 8.89095 40.9602ZM11.7025 30.0611C12.3247 29.6109 12.9738 29.4573 13.6499 29.6001C14.3212 29.7365 14.9172 30.1644 15.4377 30.8839L17.7307 34.0534L16.0779 35.2491L13.9466 32.3032C13.684 31.9402 13.3861 31.7263 13.0527 31.6613C12.7194 31.5964 12.3939 31.6788 12.0763 31.9086C11.7587 32.1384 11.5786 32.4217 11.536 32.7586C11.4934 33.0955 11.6034 33.4455 11.866 33.8084L13.9973 36.7543L12.3347 37.9571L7.12973 30.7625L8.79227 29.5597L10.6 32.0584C10.595 31.6967 10.6867 31.339 10.8753 30.9854C11.0638 30.6318 11.3395 30.3237 11.7025 30.0611ZM17.0449 30.4559C16.693 29.8648 16.494 29.2803 16.448 28.7025C16.4089 28.1206 16.5102 27.5948 16.7519 27.1251C16.9937 26.6553 17.3517 26.2793 17.826 25.9969C18.2316 25.7555 18.6347 25.6272 19.0354 25.6122C19.4429 25.593 19.809 25.6684 20.1336 25.8383L19.6487 25.0237L21.4119 23.974L24.837 29.7278L23.0737 30.7774L22.5888 29.9628C22.5766 30.3332 22.4649 30.6929 22.2537 31.0421C22.0495 31.3871 21.7446 31.6803 21.339 31.9218C20.8715 32.2 20.3737 32.3334 19.8455 32.322C19.3133 32.3037 18.8007 32.1386 18.3079 31.8268C17.8178 31.5041 17.3968 31.0471 17.0449 30.4559ZM21.3612 27.9005C21.0993 27.4606 20.7689 27.1871 20.37 27.08C19.978 26.9689 19.6067 27.0177 19.2562 27.2264C18.9056 27.4351 18.6822 27.7403 18.5862 28.1419C18.4929 28.5326 18.5772 28.948 18.8391 29.3879C19.101 29.8279 19.43 30.1068 19.8261 30.2248C20.225 30.3319 20.5997 30.281 20.9503 30.0723C21.3009 29.8636 21.5207 29.5605 21.6099 29.1629C21.706 28.7613 21.6231 28.3405 21.3612 27.9005ZM25.684 22.9864C25.7342 22.55 25.8738 22.1583 26.1029 21.8113C26.3284 21.4572 26.638 21.1818 27.0316 20.9851L28.0024 22.928L27.4978 23.1801C27.0398 23.409 26.7464 23.6808 26.6175 23.9956C26.485 24.3033 26.5422 24.704 26.7889 25.1978L28.1781 27.978L26.3425 28.8952L23.3496 22.9053L25.1852 21.9881L25.684 22.9864ZM35.6416 20.9013C35.7162 21.0782 35.7828 21.2672 35.8415 21.4682L31.5622 23.2721C31.7533 23.643 31.9992 23.8866 32.3 24.0029C32.605 24.1087 32.9161 24.0948 33.233 23.9612C33.7048 23.7623 33.949 23.425 33.9655 22.9492L35.978 22.1008C36.0457 22.5498 36.0115 22.9939 35.8755 23.4333C35.7468 23.8695 35.5186 24.2652 35.1909 24.6204C34.8631 24.9757 34.4486 25.2589 33.9473 25.4702C33.3428 25.725 32.7503 25.8229 32.1698 25.7638C31.5892 25.7046 31.0652 25.4914 30.5979 25.1241C30.1305 24.7568 29.7616 24.2525 29.4913 23.6112C29.2209 22.9698 29.1137 22.3552 29.1697 21.7673C29.2331 21.1762 29.4463 20.6523 29.8094 20.1954C30.1724 19.7385 30.6598 19.3811 31.2717 19.1231C31.8688 18.8714 32.4524 18.773 33.0225 18.8279C33.5926 18.8827 34.1045 19.088 34.5583 19.4436C35.0195 19.7962 35.3806 20.2821 35.6416 20.9013ZM33.4967 21.2194C33.36 20.8951 33.1407 20.6837 32.8387 20.5853C32.5368 20.4868 32.2199 20.5075 31.8882 20.6474C31.5712 20.781 31.341 20.9866 31.1975 21.2641C31.0614 21.5385 31.0391 21.8561 31.1304 22.217L33.4967 21.2194ZM48.261 13.654L48.3552 20.5902L46.1741 21.2123L43.9671 17.3245L44.1085 21.8015L41.9391 22.4203L38.3483 16.4814L40.3216 15.9186L42.5466 20.2629L42.318 15.3491L44.4067 14.7533L46.8097 19.0219L46.4031 14.1839L48.261 13.654ZM50.5702 12.419C50.2179 12.4934 49.9068 12.4528 49.6369 12.2972C49.3731 12.1321 49.209 11.8969 49.1445 11.5917C49.0784 11.2786 49.1334 10.9971 49.3096 10.7474C49.492 10.4881 49.7593 10.3213 50.1116 10.2469C50.456 10.1742 50.7601 10.2204 51.0239 10.3854C51.2938 10.541 51.4619 10.7754 51.528 11.0884C51.5924 11.3937 51.5335 11.676 51.3511 11.9353C51.1749 12.185 50.9146 12.3463 50.5702 12.419ZM51.7119 12.8893L53.0952 19.4409L51.0875 19.8648L49.7042 13.3132L51.7119 12.8893ZM58.1953 16.8018L58.4746 18.5193L57.4442 18.6869C56.7098 18.8063 56.1085 18.7218 55.6401 18.4332C55.1704 18.1368 54.8694 17.5819 54.7371 16.7686L54.3094 14.1391L53.504 14.2701L53.2305 12.5882L54.0359 12.4572L53.7739 10.8464L55.7993 10.517L56.0613 12.1278L57.3878 11.912L57.6614 13.5939L56.3348 13.8097L56.7664 16.4628C56.7985 16.6603 56.869 16.7947 56.9778 16.8661C57.0867 16.9376 57.2517 16.9553 57.4728 16.9194L58.1953 16.8018ZM63.2768 11.2046C64.0411 11.1292 64.6792 11.3235 65.1912 11.7875C65.7025 12.2436 66.0016 12.9135 66.0888 13.7972L66.4727 17.6903L64.4425 17.8905L64.0857 14.272C64.0417 13.8262 63.8922 13.4912 63.6369 13.2672C63.3817 13.0432 63.0591 12.9504 62.669 12.9889C62.2788 13.0273 61.9805 13.1813 61.774 13.4509C61.5674 13.7205 61.4861 14.0782 61.5301 14.524L61.8869 18.1425L59.8448 18.3438L58.9734 9.50669L61.0155 9.30533L61.3181 12.3744C61.4961 12.0595 61.7556 11.7967 62.0966 11.5863C62.4375 11.3758 62.831 11.2486 63.2768 11.2046ZM77.786 10.8114L73.534 20.6651L71.326 20.6534L72.88 17.2536L70.1901 10.7713L72.4821 10.7834L74.008 14.9795L75.566 10.7997L77.786 10.8114ZM81.7592 17.9065C81.1052 17.8542 80.5263 17.6675 80.0223 17.3463C79.5263 17.0257 79.1475 16.5941 78.8859 16.0516C78.6323 15.5096 78.5332 14.8918 78.5887 14.198C78.6436 13.5122 78.8432 12.9222 79.1877 12.4281C79.5329 11.926 79.9797 11.5565 80.5284 11.3194C81.077 11.0824 81.6783 10.9901 82.3322 11.0424C82.9861 11.0947 83.5651 11.2814 84.0691 11.6026C84.5731 11.9238 84.9555 12.3597 85.2165 12.9103C85.4781 13.4528 85.5814 14.067 85.5266 14.7528C85.4717 15.4387 85.2677 16.0323 84.9146 16.5337C84.5702 17.0278 84.1196 17.3931 83.563 17.6295C83.0143 17.8665 82.4131 17.9588 81.7592 17.9065ZM81.9007 16.1362C82.2915 16.1674 82.6339 16.0504 82.928 15.785C83.2301 15.5202 83.4025 15.1207 83.4452 14.5864C83.4879 14.0521 83.3852 13.6306 83.1371 13.3218C82.8969 13.0137 82.5814 12.844 82.1906 12.8127C81.7919 12.7808 81.4495 12.8979 81.1634 13.1639C80.8779 13.422 80.7134 13.8222 80.6701 14.3644C80.6273 14.8987 80.7221 15.3196 80.9543 15.6271C81.1945 15.9352 81.51 16.1049 81.9007 16.1362ZM94.1413 12.6555L93.1083 19.2714L91.0809 18.9548L91.2216 18.0538C90.9704 18.3141 90.6528 18.5074 90.2687 18.6337C89.8938 18.7533 89.4929 18.7798 89.066 18.7131C88.5602 18.6342 88.1309 18.4538 87.7781 18.172C87.4266 17.8823 87.1774 17.5074 87.0307 17.0472C86.8839 16.5871 86.8556 16.0685 86.9456 15.4915L87.5491 11.6263L89.5647 11.941L89.0038 15.5335C88.9347 15.9761 88.9956 16.3378 89.1866 16.6187C89.3775 16.8995 89.6667 17.0701 90.054 17.1306C90.4492 17.1923 90.7806 17.1185 91.048 16.9093C91.3155 16.7 91.4838 16.3741 91.5529 15.9315L92.1138 12.339L94.1413 12.6555ZM98.0068 14.5822C98.3211 14.2752 98.6766 14.0593 99.0732 13.9346C99.4716 13.8021 99.8855 13.7836 100.315 13.8793L99.8426 15.9993L99.2921 15.8767C98.7924 15.7654 98.3932 15.7912 98.0946 15.9541C97.7978 16.1093 97.5893 16.4563 97.4693 16.9951L96.7934 20.0287L94.7905 19.5824L96.2466 13.0467L98.2495 13.4929L98.0068 14.5822ZM106.418 16.6724C106.703 16.4364 107.043 16.2807 107.437 16.2053C107.831 16.13 108.252 16.1643 108.702 16.3084C109.227 16.4769 109.661 16.7629 110.002 17.1663C110.343 17.5697 110.556 18.0581 110.641 18.6314C110.734 19.2072 110.675 19.8227 110.465 20.4778C110.255 21.133 109.944 21.6716 109.531 22.0938C109.129 22.5108 108.67 22.7881 108.155 22.9256C107.643 23.0554 107.124 23.0361 106.599 22.8676C106.157 22.7259 105.794 22.5087 105.51 22.216C105.233 21.9257 105.046 21.6052 104.948 21.2547L103.688 25.1856L101.734 24.5591L104.753 15.1432L106.707 15.7697L106.418 16.6724ZM108.477 19.8403C108.633 19.3528 108.618 18.9279 108.432 18.5657C108.255 18.1984 107.969 17.9512 107.573 17.8242C107.185 17.6996 106.808 17.7343 106.443 17.9283C106.086 18.1247 105.83 18.4666 105.673 18.9542C105.517 19.4417 105.527 19.8692 105.703 20.2365C105.887 20.6063 106.173 20.8535 106.562 20.9781C106.95 21.1026 107.327 21.068 107.692 20.874C108.059 20.6725 108.32 20.3279 108.477 19.8403ZM111.567 20.8697C111.828 20.2331 112.175 19.7228 112.609 19.3387C113.051 18.9577 113.532 18.7227 114.052 18.6335C114.573 18.5444 115.089 18.6045 115.6 18.8139C116.036 18.9929 116.381 19.238 116.634 19.5491C116.894 19.8633 117.054 20.2012 117.113 20.5627L117.473 19.6856L119.372 20.4639L116.832 26.6595L114.933 25.8812L115.293 25.004C114.989 25.2169 114.635 25.3438 114.229 25.3849C113.83 25.4291 113.413 25.3616 112.976 25.1826C112.473 24.9762 112.067 24.6586 111.758 24.2296C111.453 23.7932 111.277 23.2843 111.23 22.703C111.193 22.1174 111.306 21.5063 111.567 20.8697ZM116.203 22.7834C116.397 22.3096 116.417 21.8812 116.263 21.4981C116.116 21.118 115.854 20.8506 115.477 20.6958C115.099 20.5411 114.721 20.546 114.342 20.7106C113.974 20.8709 113.693 21.1879 113.499 21.6617C113.304 22.1354 113.279 22.566 113.423 22.9535C113.577 23.3366 113.843 23.6056 114.22 23.7603C114.598 23.9151 114.972 23.9086 115.344 23.7409C115.722 23.5763 116.009 23.2571 116.203 22.7834ZM122.706 23.2555C123.084 23.0311 123.48 22.905 123.895 22.8771C124.314 22.8421 124.72 22.9216 125.115 23.1157L124.157 25.0649L123.651 24.8161C123.191 24.5903 122.797 24.5214 122.469 24.6095C122.144 24.6905 121.859 24.9786 121.616 25.474L120.245 28.2633L118.403 27.3582L121.357 21.3488L123.199 22.254L122.706 23.2555ZM127.314 30.054L126.468 31.5747L125.556 31.0673C124.906 30.7057 124.486 30.2665 124.297 29.7497C124.113 29.2259 124.221 28.604 124.621 27.8838L125.916 25.5556L125.203 25.159L126.031 23.6698L126.744 24.0664L127.537 22.6401L129.331 23.6374L128.537 25.0637L129.712 25.7169L128.884 27.2061L127.709 26.5529L126.403 28.9021C126.306 29.0769 126.278 29.2261 126.319 29.3496C126.36 29.4732 126.478 29.5894 126.674 29.6983L127.314 30.054ZM134.752 28.8215C135.41 29.2473 135.795 29.8011 135.906 30.4831C136.029 31.1626 135.849 31.8752 135.367 32.6208L133.242 35.9056L131.53 34.7977L133.504 31.7447C133.747 31.3685 133.839 31.0133 133.779 30.679C133.719 30.3448 133.524 30.0712 133.195 29.8584C132.866 29.6455 132.537 29.5802 132.207 29.6624C131.878 29.7446 131.591 29.9739 131.348 30.35L129.373 33.4031L127.65 32.2887L131.287 26.6662L133.01 27.7806L132.527 28.5262C132.863 28.3907 133.224 28.3479 133.611 28.398C134.002 28.4414 134.382 28.5826 134.752 28.8215ZM141.719 37.939C141.602 38.0916 141.471 38.2433 141.326 38.3941L137.635 35.576C137.408 35.926 137.319 36.2605 137.367 36.5793C137.427 36.8966 137.593 37.1597 137.867 37.3684C138.274 37.6791 138.688 37.7235 139.109 37.5015L140.845 38.8268C140.489 39.1085 140.086 39.2995 139.637 39.3997C139.195 39.5047 138.738 39.5032 138.267 39.3951C137.796 39.2871 137.344 39.068 136.912 38.7379C136.39 38.3398 136.011 37.8742 135.774 37.3409C135.537 36.8077 135.462 36.247 135.549 35.6589C135.635 35.0708 135.89 34.5002 136.312 33.947C136.734 33.3938 137.215 32.9955 137.753 32.7521C138.297 32.5135 138.858 32.4383 139.435 32.5265C140.012 32.6146 140.564 32.8602 141.092 33.2631C141.607 33.6563 141.982 34.114 142.218 34.636C142.453 35.158 142.529 35.7043 142.446 36.2748C142.369 36.8502 142.127 37.4049 141.719 37.939ZM140.377 36.2355C140.591 35.9557 140.666 35.6603 140.601 35.3494C140.536 35.0384 140.361 34.7737 140.075 34.5552C139.802 34.3465 139.509 34.2488 139.197 34.2621C138.891 34.2803 138.604 34.4186 138.336 34.6772L140.377 36.2355ZM145.865 38.6939C146.288 38.5762 146.704 38.5582 147.111 38.6399C147.524 38.7156 147.896 38.8987 148.226 39.1894L146.791 40.8199L146.368 40.4473C145.984 40.1091 145.621 39.9395 145.281 39.9385C144.946 39.9315 144.596 40.1352 144.232 40.5496L142.178 42.8828L140.638 41.5271L145.062 36.5005L146.602 37.8561L145.865 38.6939Z" fill="#B34962"/>
</svg>
