<svg width="78" height="78" viewBox="0 0 78 78" fill="none" xmlns="http://www.w3.org/2000/svg">
<path d="M39 32.5V45.5M33.371 35.75L44.629 42.25M44.629 35.75L33.3678 42.25M21.879 32.5V45.5M16.25 35.75L27.508 42.25M27.508 35.75L16.25 42.25M56.121 32.5V45.5M50.492 35.75L61.75 42.25M61.75 35.75L50.4887 42.25M71.5 39C71.5 51.2557 71.5 57.3852 67.691 61.191C63.882 64.9967 57.7557 65 45.5 65H32.5C20.2443 65 14.1147 65 10.309 61.191C6.50325 57.382 6.5 51.2557 6.5 39C6.5 26.7443 6.5 20.6147 10.309 16.809C14.118 13.0032 20.2443 13 32.5 13H45.5C57.7557 13 63.8852 13 67.691 16.809C69.8165 18.9312 70.7558 21.775 71.1685 26" stroke="#B34962" stroke-width="4.875" stroke-linecap="round"/>
</svg>
