<svg width="22" height="22" viewBox="0 0 22 22" fill="none" xmlns="http://www.w3.org/2000/svg">
<path d="M14.4158 2.05937C11.3747 2.05937 8.92395 4.51009 8.92395 7.55118C8.92395 7.7125 8.94935 7.9308 8.9672 8.13057L3.0889 14.0082C2.76781 14.3272 2.51299 14.7066 2.3391 15.1244C2.16521 15.5423 2.07568 15.9905 2.07568 16.4431C2.07568 16.8957 2.16521 17.3439 2.3391 17.7618C2.51299 18.1797 2.76781 18.559 3.0889 18.878C3.40791 19.1991 3.78728 19.454 4.20517 19.6278C4.62306 19.8017 5.07121 19.8913 5.52383 19.8913C5.97645 19.8913 6.42461 19.8017 6.8425 19.6278C7.26038 19.454 7.63975 19.1991 7.95876 18.878L13.8364 12.9997C14.0354 13.0176 14.2551 13.043 14.4158 13.043C17.4568 13.043 19.9076 10.5923 19.9076 7.55118C19.9111 6.66632 19.6895 5.79511 19.2637 5.01946L18.8346 4.22589L18.1914 4.86981L15.2306 7.80792L14.1583 6.73565L17.0964 3.77556L17.7417 3.13165L16.9475 2.7026C16.1718 2.27698 15.3006 2.05563 14.4158 2.05937ZM14.4158 3.43233C14.7494 3.43233 14.9979 3.57649 15.2944 3.64719L12.6996 6.24207L12.2053 6.73633L12.6996 7.20794L14.759 9.26737L15.2313 9.76163L15.7242 9.26737L18.3204 6.67249C18.3911 6.96905 18.5346 7.21755 18.5346 7.55118C18.5346 9.86461 16.7292 11.67 14.4158 11.67C14.1412 11.67 13.9215 11.67 13.7499 11.6268L13.386 11.5197L13.1073 11.7991L6.99289 17.9135C6.14853 18.7579 4.89914 18.7579 4.05477 17.9135L4.03281 17.8916C3.20903 17.0472 3.2159 15.8115 4.0534 14.974L10.1678 8.86029L10.4472 8.58158L10.3388 8.21775C10.2976 8.04613 10.2962 7.82646 10.2962 7.55187C10.2962 5.23844 12.1016 3.43301 14.4151 3.43301L14.4158 3.43233Z" fill="#B34962"/>
</svg>
