<svg width="24" height="24" viewBox="0 0 24 24" fill="none" xmlns="http://www.w3.org/2000/svg">
<path d="M20.1301 9.60898C20.1301 9.35534 20.0294 9.11207 19.8502 8.93263C19.6709 8.75319 19.4278 8.65224 19.1741 8.65198H4.82612C4.57248 8.65224 4.32932 8.75319 4.15006 8.93263C3.97081 9.11207 3.87012 9.35534 3.87012 9.60898V22.044C3.87012 22.2975 3.97084 22.5407 4.15012 22.72C4.32941 22.8993 4.57257 23 4.82612 23H13.4351C14.0406 22.9674 14.6167 22.7288 15.0681 22.324L19.4541 17.937C19.859 17.4856 20.0975 16.9094 20.1301 16.304V9.60898Z" fill="#FFEF5E"/>
<path d="M19.1741 8.65198H4.82612C4.57248 8.65224 4.32932 8.75319 4.15006 8.93263C3.97081 9.11207 3.87012 9.35534 3.87012 9.60898V22.044C3.87012 22.2975 3.97084 22.5407 4.15012 22.72C4.32941 22.8993 4.57257 23 4.82612 23H5.63212L19.7601 8.87098C19.5955 8.73321 19.3887 8.65593 19.1741 8.65198Z" fill="#FFF9BF"/>
<path d="M20.1301 9.60898C20.1301 9.35534 20.0294 9.11207 19.8502 8.93263C19.6709 8.75319 19.4278 8.65224 19.1741 8.65198H4.82612C4.57248 8.65224 4.32932 8.75319 4.15006 8.93263C3.97081 9.11207 3.87012 9.35534 3.87012 9.60898V22.044C3.87012 22.2975 3.97084 22.5407 4.15012 22.72C4.32941 22.8993 4.57257 23 4.82612 23H13.4351C14.0406 22.9674 14.6167 22.7288 15.0681 22.324L19.4541 17.937C19.859 17.4856 20.0975 16.9094 20.1301 16.304V9.60898Z" stroke="#191919" stroke-linecap="round" stroke-linejoin="round"/>
<path d="M14.3901 22.766V18.217C14.3904 17.9633 14.4913 17.7202 14.6708 17.5409C14.8502 17.3617 15.0935 17.261 15.3471 17.261H19.8951L14.3901 22.766Z" fill="#FFBC44" stroke="#191919" stroke-linecap="round" stroke-linejoin="round"/>
<path d="M11.5209 6.74C11.8978 6.74 12.271 6.66577 12.6192 6.52153C12.9674 6.3773 13.2838 6.1659 13.5503 5.8994C13.8168 5.63289 14.0282 5.31651 14.1724 4.9683C14.3166 4.6201 14.3909 4.24689 14.3909 3.87C14.3909 3.49311 14.3166 3.1199 14.1724 2.7717C14.0282 2.42349 13.8168 2.10711 13.5503 1.8406C13.2838 1.5741 12.9674 1.3627 12.6192 1.21847C12.271 1.07423 11.8978 1 11.5209 1C10.7597 1 10.0297 1.30237 9.49148 1.8406C8.95325 2.37883 8.65088 3.10883 8.65088 3.87C8.65088 4.63117 8.95325 5.36117 9.49148 5.8994C10.0297 6.43763 10.7597 6.74 11.5209 6.74Z" fill="#FF808C"/>
<path d="M11.5209 2.913C12.1127 2.91397 12.6896 3.09848 13.1721 3.44111C13.6546 3.78373 14.0189 4.2676 14.2149 4.826C14.3279 4.52 14.3879 4.196 14.3909 3.87C14.3909 3.10883 14.0885 2.37883 13.5503 1.8406C13.012 1.30237 12.2821 1 11.5209 1C10.7597 1 10.0297 1.30237 9.49148 1.8406C8.95325 2.37883 8.65088 3.10883 8.65088 3.87C8.65488 4.196 8.71388 4.52 8.82788 4.826C9.02377 4.26776 9.38796 3.78401 9.87027 3.4414C10.3526 3.09878 10.9293 2.91417 11.5209 2.913Z" fill="#FFBFC5"/>
<path d="M11.5209 6.74C11.8978 6.74 12.271 6.66577 12.6192 6.52153C12.9674 6.3773 13.2838 6.1659 13.5503 5.8994C13.8168 5.63289 14.0282 5.31651 14.1724 4.9683C14.3166 4.6201 14.3909 4.24689 14.3909 3.87C14.3909 3.49311 14.3166 3.1199 14.1724 2.7717C14.0282 2.42349 13.8168 2.10711 13.5503 1.8406C13.2838 1.5741 12.9674 1.3627 12.6192 1.21847C12.271 1.07423 11.8978 1 11.5209 1C10.7597 1 10.0297 1.30237 9.49148 1.8406C8.95325 2.37883 8.65088 3.10883 8.65088 3.87C8.65088 4.63117 8.95325 5.36117 9.49148 5.8994C10.0297 6.43763 10.7597 6.74 11.5209 6.74ZM11.5209 6.74V9.609" stroke="#191919" stroke-linecap="round" stroke-linejoin="round"/>
<path d="M11.5213 2.91302C11.7749 2.91329 12.0181 3.01423 12.1973 3.19368C12.3766 3.37312 12.4773 3.61639 12.4773 3.87002M7.21729 12.478H14.8693M7.21729 15.348H14.8693M7.21729 18.217H11.9993" stroke="#191919" stroke-linecap="round" stroke-linejoin="round"/>
</svg>
