<svg width="13" height="13" viewBox="0 0 13 13" fill="none" xmlns="http://www.w3.org/2000/svg">
<g clip-path="url(#clip0_1117_224)">
<path d="M1.61127 7.39294L2.01244 7.42731C2.0032 7.53047 1.95457 7.6261 1.87666 7.69434C1.79875 7.76258 1.69754 7.79819 1.59407 7.79376C1.49059 7.78934 1.3928 7.74523 1.32099 7.67058C1.24919 7.59594 1.2089 7.49651 1.2085 7.39294H1.61127ZM10.8676 6.41392L10.4885 4.22281L11.2828 4.08533L11.6614 6.27644L10.8676 6.41392ZM7.11322 1.47694H4.61653V0.671382H7.11322V1.47694ZM4.12729 1.92644L3.69122 6.97083L2.88835 6.90155L3.32496 1.85716L4.12729 1.92644ZM10.4885 4.22281C10.2162 2.64929 8.79737 1.47694 7.11322 1.47694V0.671382C9.16792 0.671382 10.9401 2.10473 11.2828 4.08533L10.4885 4.22281ZM7.11859 10.1501L6.76253 7.97777L7.55735 7.84781L7.9134 10.0196L7.11859 10.1501ZM3.86038 7.38649L4.63318 8.05242L4.10688 8.66249L3.33516 7.99657L3.86038 7.38649ZM6.03861 10.2188L6.29424 11.2038L5.51446 11.4057L5.25883 10.4213L6.03861 10.2188ZM6.67983 11.3971L6.7577 11.3718L7.0042 12.1387L6.92633 12.164L6.67983 11.3971ZM5.6514 9.22853C5.81906 9.54221 5.94903 9.87462 6.03861 10.2188L5.25883 10.4213C5.18483 10.1387 5.07813 9.86561 4.9409 9.60768L5.6514 9.22853ZM6.7577 11.3718C6.83421 11.3484 6.90361 11.3061 6.95953 11.2489C7.01545 11.1916 7.05611 11.1213 7.07777 11.0443L7.85755 11.2462C7.80229 11.4549 7.69504 11.6463 7.54582 11.8023C7.39659 11.9584 7.21026 12.0742 7.0042 12.1387L6.7577 11.3718ZM6.29424 11.2038C6.30511 11.2424 6.32416 11.2782 6.35011 11.3088C6.37606 11.3393 6.40829 11.364 6.44461 11.381L6.095 12.1065C5.80929 11.969 5.59448 11.7145 5.51446 11.4057L6.29424 11.2038ZM6.44461 11.381C6.51816 11.4159 6.6022 11.4216 6.67983 11.3971L6.92633 12.164C6.65204 12.2517 6.35461 12.2311 6.095 12.1065L6.44461 11.381ZM7.60138 6.99016H10.3832V7.79572H7.60138V6.99016ZM2.53444 1.39316L2.01244 7.42731L1.21011 7.35803L1.73103 1.32388L2.53444 1.39316ZM2.01405 1.3357V7.39294H1.2085V1.3357H2.01405ZM1.73103 1.32388C1.72939 1.3434 1.73237 1.36304 1.73873 1.38157C1.74509 1.40009 1.75524 1.41709 1.76852 1.43148C1.7818 1.44588 1.79793 1.45735 1.81589 1.46517C1.83384 1.473 1.85323 1.47701 1.87281 1.47694V0.671382C2.2627 0.671382 2.56774 1.00542 2.53444 1.39316L1.73103 1.32388ZM7.9134 10.0196C7.98091 10.4278 7.96188 10.8457 7.85755 11.2462L7.07777 11.0437C7.15394 10.752 7.16784 10.4475 7.11859 10.1501L7.9134 10.0196ZM4.61653 1.47694C4.49356 1.47715 4.37512 1.52342 4.28456 1.60662C4.19401 1.68982 4.1379 1.80392 4.12729 1.92644L3.32496 1.85716C3.3529 1.53378 3.50104 1.23261 3.74015 1.0131C3.97925 0.793579 4.29194 0.671655 4.61653 0.671382V1.47694ZM4.63318 8.05242C4.99837 8.36712 5.39148 8.74144 5.65194 9.22853L4.9409 9.60768C4.75509 9.25914 4.45918 8.96538 4.10688 8.66249L4.63318 8.05242ZM11.6614 6.27644C11.6937 6.4628 11.6849 6.65397 11.6356 6.83657C11.5863 7.01917 11.4976 7.18878 11.3759 7.33351C11.2541 7.47825 11.1022 7.59461 10.9307 7.67445C10.7592 7.75429 10.5724 7.79568 10.3832 7.79572V6.99016C10.6877 6.99016 10.9203 6.7152 10.8676 6.41392L11.6614 6.27644ZM1.87281 1.47694C1.95122 1.47694 2.01405 1.41357 2.01405 1.3357H1.2085C1.2085 0.969437 1.50548 0.671382 1.87281 0.671382V1.47694ZM6.76253 7.97777C6.74251 7.85609 6.7492 7.73151 6.78214 7.61267C6.81508 7.49384 6.87348 7.38359 6.95329 7.28958C7.0331 7.19557 7.1324 7.12004 7.24431 7.06825C7.35623 7.01645 7.47807 6.99016 7.60138 6.99016V7.79572C7.59483 7.79569 7.58835 7.79657 7.58241 7.79933C7.57647 7.80209 7.57121 7.80612 7.567 7.81115C7.5628 7.81617 7.55975 7.82206 7.55808 7.8284C7.55641 7.83474 7.55616 7.84136 7.55735 7.84781L6.76253 7.97777ZM3.69122 6.97083C3.68467 7.04859 3.69609 7.1268 3.72559 7.19905C3.75509 7.2713 3.80128 7.33553 3.86038 7.38649L3.33409 7.9971C3.17843 7.86277 3.05686 7.69342 2.97937 7.50297C2.90188 7.31252 2.87069 7.1064 2.88835 6.90155L3.69122 6.97083Z" fill="#A6A6A6"/>
</g>
<defs>
<clipPath id="clip0_1117_224">
<rect width="12.8889" height="12.8889" fill="white" transform="matrix(1 0 0 -1 0 12.8889)"/>
</clipPath>
</defs>
</svg>
