<svg width="25" height="25" viewBox="0 0 25 25" fill="none" xmlns="http://www.w3.org/2000/svg">
<path d="M12.0176 10.0146C14.2299 10.0146 16.0234 8.22114 16.0234 6.00877C16.0234 3.79641 14.2299 2.00293 12.0176 2.00293C9.8052 2.00293 8.01172 3.79641 8.01172 6.00877C8.01172 8.22114 9.8052 10.0146 12.0176 10.0146Z" stroke="#B34962" stroke-width="1.5"/>
<path d="M20.0272 18.0263C20.0286 17.8621 20.0292 17.6952 20.0292 17.5256C20.0292 15.037 16.442 13.019 12.0175 13.019C7.59309 13.019 4.00586 15.037 4.00586 17.5256C4.00586 20.0142 4.00586 22.0322 12.0175 22.0322C14.2518 22.0322 15.8632 21.875 17.0249 21.5946" stroke="#B34962" stroke-width="1.5" stroke-linecap="round"/>
</svg>
